<svg width="492" height="511" viewBox="0 0 492 511" fill="none" xmlns="http://www.w3.org/2000/svg">
<path d="M316.835 480.743C170.066 519.667 88.9786 486.953 66.7831 465.744C-32.4521 370.898 5.57664 268.673 21.6746 241.152C42.9137 204.825 82.8383 150.253 106.315 112.559C167.641 7.41203 251.7 3.98687 286.091 15.4582C437.344 45.9772 484.152 174.596 488.644 235.088C509.729 397.036 382.858 466.333 316.835 480.743Z" fill="#F7BC28"/>
<path d="M190.596 208.634C167.045 210.198 143.398 209.506 119.979 206.567C108.023 205.064 93.1376 200.024 93.8891 190.21C94.5553 181.557 107.024 177.398 117.408 175.356C198.619 159.691 281.679 155.95 363.968 164.252C377.794 165.645 392.662 167.831 402.253 176.04C406.267 179.456 409.153 184.393 407.377 188.903C405.31 194.19 398.025 196.676 391.518 198.376C348.856 209.415 304.918 214.74 260.855 214.212L190.596 208.634Z" fill="#153A23"/>
<path d="M203.125 154.899C225.209 150.415 247.661 145.931 270.113 147.852C292.565 149.774 315.375 159.136 328.586 177.415C343.156 197.633 343.634 224.803 354.898 247.029C361.799 260.695 373.012 273.507 372.252 288.72C371.15 310.928 346.298 323.117 324.914 329.216C271.868 344.338 216.84 351.353 161.697 350.023C155.77 349.878 149.647 349.587 144.301 347.016C134.847 342.506 129.809 331.496 129.501 321.05C129.194 310.604 132.721 300.379 136.427 290.565C152.516 247.977 172.529 206.978 196.207 168.096" fill="#FAC7B7"/>
<path d="M213.125 172.29C203.377 200.551 199.438 230.49 201.545 260.311C202.561 274.678 205.174 289.455 212.86 301.105C217.616 308.278 224.258 314 232.056 317.641C239.853 321.282 248.503 322.701 257.055 321.742C273.708 319.683 288.952 308.425 298.167 292.974C311.634 270.39 312.224 241.485 310.413 214.519C308.791 190.543 303.428 163.074 284.076 152.063C268.857 143.411 250.488 148.297 233.997 153.387L213.125 172.29Z" fill="#B26D55"/>
<path d="M189.734 230.988C212.63 231.082 238.831 220.627 244.595 215.117C261.974 198.521 263.639 172.409 263.119 149.586L208.778 160.844L190.127 195.865C190.127 195.865 189.725 230.988 189.734 230.988Z" fill="#FAC7B7"/>
<path d="M255.347 159.964C255.347 159.964 274.067 207.345 322.813 216.817L315.127 188.391L298.449 159.964H255.347Z" fill="#FAC7B7"/>
<path d="M89.9949 500.397C80.6692 470.365 93.112 426.214 115.162 403.801C137.213 381.387 167.419 368.78 197.838 360.836C235.013 351.116 274.699 347.606 311.737 357.659C327.237 361.861 342.054 368.37 356.145 376.134C378.307 388.357 399.486 404.689 410.212 427.614C422.416 453.726 419.299 468.614 414.892 497.083" fill="#39B55D"/>
<path d="M279.046 212.768C278.419 212.67 277.777 212.776 277.215 213.071C276.654 213.367 276.202 213.836 275.929 214.408C275.792 214.699 275.655 214.981 275.544 215.263C275.177 216.228 275.211 217.552 276.134 218.03C276.518 218.196 276.937 218.269 277.355 218.244C281.674 218.347 285.969 218.92 290.165 219.952C292.306 220.466 294.418 221.094 296.493 221.831C297.014 222.019 298.927 223.095 299.414 222.916C300.268 222.591 299.849 221.02 299.491 220.473C298.941 219.76 298.241 219.177 297.441 218.765L297.227 218.628C292.97 216.025 288.244 214.284 283.316 213.503L279.046 212.768Z" fill="#FAC7B7"/>
<path d="M226.166 160.955C209.291 162.125 204.73 176.663 198.752 190.287C192.074 205.491 180.289 221.78 172.184 236.258C164.25 250.42 156.377 264.693 150.364 279.82C147.352 287.283 144.931 294.971 143.122 302.814C141.56 309.766 141.867 311.441 140.928 318.607C139.869 326.764 140.219 336.314 148.392 337.825C156.564 339.337 171.194 338.944 179.213 340.021C180.716 340.226 181.373 337.919 179.853 337.714C168.23 336.16 148.972 341.131 144.361 326.217C142.243 319.384 143.643 311.833 145.095 305C146.649 297.646 162.414 269.595 165.07 262.566C175.95 233.798 184.089 229.066 197.206 201.365C204.039 186.845 206.908 164.705 226.166 163.364C227.686 163.261 227.703 160.87 226.166 160.972V160.955Z" fill="white"/>
<path d="M213.971 334.469C206.549 333.785 194.2 331.787 187.309 328.951C181.271 326.474 174.627 322.972 171.185 317.155C165.309 307.247 166.275 291.667 174.174 283.065C175.207 281.938 175.575 279.188 174.533 280.324C167.701 287.763 164.088 295.929 165.301 305.701C166.155 312.269 165.848 318.692 169.375 322.066C173.704 326.217 182.518 329.685 188.069 331.812C194.781 334.375 203.791 335.297 210.93 335.963C212.468 336.1 220.324 334.614 218.787 334.469H213.971Z" fill="white"/>
<path d="M189.35 266.375C185.823 275.967 181.869 291.795 184.098 299.628C185.396 304.189 194.072 311.073 201.007 316.847C202.185 317.83 204.756 318.556 203.569 317.548C196.967 312.056 189.674 305.974 187.343 297.33C184.781 287.567 187.539 274.746 190.912 265.564C191.442 264.12 189.845 264.94 189.315 266.375H189.35Z" fill="white"/>
<path d="M196.361 220.985C204.901 219.721 213.006 216.595 220.897 213.119C228.181 209.907 239.873 204.475 245.663 198.905C251.453 193.336 252.785 183.838 255.347 176.339C258.165 168.241 257.704 163.765 257.764 155.198C257.764 153.661 256.056 149.501 256.056 151.047C256.056 175.109 250.855 188.92 239.078 199.691C233.51 204.816 226.507 208.036 219.667 211.052C211.981 214.468 204.064 217.449 195.703 218.679C194.183 218.901 194.849 221.242 196.335 220.985H196.361Z" fill="white"/>
<path d="M212.348 195.079C214.389 187.519 223.766 179.883 229.189 174.135C235.073 167.891 236.363 165.781 243.528 161.092C244.817 160.238 243.622 158.188 242.324 159.033C234.637 164.047 227.225 169.83 221.059 176.629C215.576 182.676 212.092 189.1 211.622 193.029C211.434 194.558 210.64 198.555 211.622 198.905L212.348 195.079Z" fill="white"/>
<path d="M231.956 187.707C239.471 178.175 247.986 166.354 246.696 158.666C246.448 157.171 244.604 156.514 244.39 158.034C242.725 169.992 234.877 181.95 227.609 191.175C226.67 192.371 228.642 191.97 229.59 190.765L231.956 187.707Z" fill="white"/>
<path d="M328.219 217.116C301.19 209.915 279.541 186.956 273.922 159.571L272.769 161.083C289.943 159.503 305.033 170.351 314.863 183.573C326.17 198.777 330.79 217.646 336.947 235.25C340.204 244.264 344.023 253.065 348.382 261.601C352.61 270.082 356.922 279.384 355.812 289.121C353.933 305.393 337.63 314.652 323.702 319.632C302.292 327.319 279.054 330.659 256.38 330.864C254.843 330.864 251.256 334.486 252.819 334.469C274.511 334.272 293.342 331.718 314.043 325.158C328.236 320.648 352.473 309.425 358.109 294.554C361.431 285.782 361.782 278.069 358.331 269.638C354.429 260.106 345.453 251.077 341.747 241.451C334.59 222.813 327.229 194.421 322.105 188.399C310.148 174.374 292.214 156.915 272.794 158.7C272.612 158.705 272.433 158.751 272.271 158.834C272.109 158.917 271.967 159.035 271.857 159.18C271.746 159.325 271.669 159.493 271.632 159.672C271.595 159.85 271.598 160.035 271.641 160.212C279.814 199.452 299.824 212.025 327.613 219.431C327.917 219.508 328.239 219.464 328.51 219.306C328.781 219.148 328.979 218.891 329.062 218.588C329.145 218.286 329.105 217.963 328.953 217.689C328.8 217.416 328.546 217.213 328.245 217.125L328.219 217.116Z" fill="white"/>
<path d="M252.358 323.074C269.25 324.501 296.467 322.912 312.608 316.95C325.674 312.115 328.595 304.94 334.342 291.889C337.571 284.56 339.791 285.261 334.189 268.827C333.693 267.375 331.2 266.871 331.994 268.195C339.68 281.058 329.697 298.551 319.722 306.785C308.475 316.07 293.982 320.187 279.644 321.246C270.548 321.782 261.425 321.599 252.358 320.7C250.829 320.572 250.838 322.963 252.358 323.091V323.074Z" fill="white"/>
<path d="M343.805 296.689C350.731 287.661 348.169 281.511 345.675 270.697C342.754 258.03 335.205 247.02 328.27 236.258C327.416 234.968 325.367 236.164 326.204 237.462C332.78 247.669 339.868 257.962 343.011 269.92C345.82 280.537 346.546 289.241 340.491 300.191C339.748 301.532 339.347 303.847 340.269 302.643L343.805 296.689Z" fill="white"/>
<path d="M295.485 304.163C306.143 301.08 315.699 287.592 320.004 277.539C325.29 265.214 319.15 257.936 316.186 245.132C315.836 243.638 313.539 244.278 313.88 245.773C316.69 257.834 317.476 270.945 312.719 282.638C308.791 292.299 300.302 298.791 290.831 303.497C289.837 304.185 288.919 304.975 288.09 305.854L295.485 304.163Z" fill="white"/>
<path d="M290.933 179.576C296.057 181.105 299.935 184.923 303.564 188.681C307.322 192.585 315.904 202.86 319.073 207.251C325.256 215.792 325.179 219.029 328.894 228.903C329.432 230.33 331.746 229.706 331.2 228.263C327.251 217.684 321.841 207.71 315.127 198.632C311.848 194.225 312.053 192.303 308.21 188.382C304.512 184.624 299.61 180.695 294.452 179.132C292.974 178.688 289.499 179.132 290.968 179.567L290.933 179.576Z" fill="white"/>
<path d="M205.815 229.561C195.567 231.227 191.912 231.107 182.543 235.848C175.822 239.264 168.76 244.193 167.667 251.65C166.266 261.242 175.891 269.237 185.404 271.09C194.918 272.944 204.764 270.851 214.44 271.637" fill="#B26D55"/>
<path d="M307.697 214.255C316.367 213.384 325.12 214.527 333.275 217.594C341.405 220.661 348.305 228.886 346.828 237.453C345.239 246.661 335.461 251.803 326.648 254.895C318.381 257.802 309.927 260.145 301.344 261.908" fill="#B26D55"/>
<path d="M234.655 317.941L241.683 354.61H263.195L270.984 307.127L234.655 317.941Z" fill="#B26D55"/>
<path d="M207.335 369.506C206.566 360.516 207.82 351.468 211.007 343.027C211.276 342.11 211.79 341.283 212.493 340.636C213.517 340.013 214.717 339.743 215.909 339.867C240.052 339.867 262.29 337.868 286.433 337.825C289.576 337.825 294.708 339.739 297.646 340.858C302.77 342.797 306.186 347.862 307.535 353.149C308.885 358.436 308.586 364.005 308.244 369.463" fill="#39B55D"/>
<path d="M213.612 285.893C213.467 286.027 213.276 286.102 213.078 286.102C212.88 286.102 212.69 286.027 212.544 285.893C210.093 283.74 207.25 282.066 204.705 280.016C201.972 277.804 199.495 274.968 198.88 271.475C197.727 264.983 204.363 260.593 209.752 264.761C211.222 265.992 212.505 267.431 213.561 269.032C213.582 269.07 213.616 269.1 213.657 269.116C213.699 269.132 213.744 269.133 213.786 269.119C213.828 269.104 213.863 269.076 213.886 269.038C213.909 269 213.918 268.956 213.911 268.912C213.83 267.991 213.934 267.063 214.217 266.183C214.501 265.303 214.957 264.488 215.559 263.787C217.6 261.344 221.913 259.269 225.192 259.875C229.812 260.729 229.701 266.051 228.437 269.553C226.9 273.772 222.562 277.488 219.376 280.46L213.612 285.893Z" fill="#F1673C"/>
<path d="M298.158 281.955C297.998 282.073 297.799 282.125 297.601 282.103C297.404 282.081 297.221 281.986 297.091 281.836C294.913 279.41 292.274 277.428 289.985 275.096C287.526 272.585 285.391 269.476 285.177 265.974C284.776 259.397 291.873 255.792 296.749 260.55C298.068 261.941 299.176 263.518 300.037 265.231C300.058 265.268 300.09 265.297 300.129 265.314C300.168 265.331 300.211 265.335 300.253 265.326C300.294 265.316 300.331 265.293 300.358 265.261C300.386 265.228 300.402 265.188 300.404 265.145C300.433 264.224 300.645 263.317 301.028 262.478C301.411 261.64 301.956 260.885 302.633 260.26C304.939 258.064 309.465 256.501 312.651 257.484C317.143 258.859 316.417 264.129 314.76 267.46C312.753 271.483 308.013 274.678 304.512 277.266L298.158 281.955Z" fill="#F1673C"/>
<path d="M268.029 294.468C272.089 292.772 275.759 290.261 278.811 287.09C281.863 283.92 284.233 280.158 285.775 276.036C285.891 275.809 285.954 275.558 285.961 275.304C285.967 275.049 285.917 274.796 285.812 274.563C285.708 274.33 285.554 274.124 285.359 273.959C285.165 273.794 284.936 273.674 284.69 273.609C284.444 273.544 284.186 273.534 283.935 273.582C283.685 273.629 283.448 273.732 283.243 273.883C283.037 274.034 282.868 274.229 282.748 274.453C282.627 274.678 282.559 274.927 282.547 275.182C281.194 278.757 279.136 282.025 276.495 284.789C273.855 287.554 270.685 289.759 267.175 291.274C266.752 291.399 266.394 291.684 266.176 292.068C265.957 292.451 265.896 292.905 266.005 293.332C266.13 293.756 266.415 294.114 266.799 294.332C267.182 294.55 267.635 294.611 268.063 294.503L268.029 294.468Z" fill="#010101"/>
<path d="M269.37 234.464C270.813 240.605 276.629 245.799 283.179 244.304C289.26 242.92 291.898 236.454 293.649 231.158L291.215 232.158L303.112 238.231C305.024 239.204 306.724 236.317 304.82 235.344L292.923 229.271C292.7 229.148 292.453 229.076 292.199 229.061C291.945 229.046 291.691 229.088 291.455 229.184C291.219 229.279 291.008 229.427 290.837 229.615C290.665 229.803 290.538 230.027 290.464 230.27C289.174 234.165 287.423 239.324 283.162 240.844C278.132 242.638 273.717 238.154 272.641 233.576C272.145 231.483 268.917 232.371 269.413 234.43L269.37 234.464Z" fill="#010101"/>
<path d="M288.764 238.393L289.183 238.709C289.405 238.88 289.234 238.752 289.114 238.649L289.396 238.871L290.421 239.726L292.787 241.682C294.273 242.92 295.75 244.184 297.313 245.32C297.699 245.535 298.153 245.591 298.579 245.478C299.006 245.365 299.372 245.091 299.602 244.714C299.817 244.329 299.874 243.876 299.763 243.449C299.652 243.022 299.38 242.655 299.004 242.425L298.577 242.117C298.355 241.946 298.534 242.075 298.654 242.168L298.363 241.946L297.338 241.092C296.544 240.443 295.759 239.785 294.973 239.128C293.487 237.898 292.018 236.634 290.447 235.497C290.062 235.282 289.609 235.225 289.182 235.336C288.755 235.447 288.388 235.72 288.158 236.095C287.944 236.481 287.887 236.935 288 237.362C288.113 237.789 288.387 238.155 288.764 238.385V238.393Z" fill="#010101"/>
<path d="M240.069 238.769C238.993 243.347 234.578 247.823 229.548 246.029C225.278 244.517 223.57 239.35 222.237 235.455C222.163 235.212 222.036 234.99 221.865 234.803C221.694 234.616 221.484 234.469 221.249 234.373C221.014 234.278 220.761 234.235 220.508 234.25C220.255 234.264 220.009 234.334 219.786 234.455L207.882 240.528C205.96 241.511 207.651 244.398 209.59 243.416L221.486 237.351L219.035 236.343C220.794 241.656 223.424 248.096 229.505 249.497C236.055 251 241.871 245.782 243.314 239.657C243.809 237.565 240.581 236.668 240.086 238.803L240.069 238.769Z" fill="#010101"/>
<path d="M222.212 240.708C220.649 241.844 219.18 243.108 217.694 244.347L215.328 246.303L214.304 247.157L214.047 247.353C213.945 247.43 214.398 247.088 214.09 247.353L213.663 247.669C213.287 247.9 213.015 248.267 212.904 248.694C212.793 249.12 212.85 249.573 213.065 249.958C213.296 250.334 213.663 250.606 214.089 250.718C214.516 250.829 214.969 250.771 215.354 250.556C216.917 249.42 218.394 248.156 219.872 246.926L222.246 244.962L223.271 244.107L223.518 243.911L223.937 243.603C224.24 243.342 224.441 242.982 224.506 242.587C224.571 242.192 224.495 241.787 224.292 241.442C224.088 241.098 223.771 240.835 223.393 240.701C223.016 240.567 222.604 240.569 222.229 240.708H222.212Z" fill="#010101"/>
<path d="M318.834 226.281C321.94 225.966 325.078 226.256 328.074 227.135C331.02 227.878 334.052 228.844 335.76 231.526C336.225 232.187 336.527 232.949 336.641 233.749C336.755 234.549 336.679 235.365 336.418 236.13C335.822 237.645 334.927 239.025 333.787 240.187C331.821 242.11 329.477 243.605 326.904 244.577C323.915 245.824 320.806 246.781 317.834 248.096C316.434 248.711 317.647 250.778 319.039 250.155C324.897 247.592 331.849 246.311 336.119 241.126C338.501 238.239 340.004 234.72 338.254 231.124C336.64 227.827 333.488 226.204 330.124 225.213C326.273 223.948 322.196 223.525 318.168 223.975C316.647 224.197 317.314 226.537 318.799 226.281H318.834Z" fill="#010101"/>
<path d="M320.96 240.033C321.893 239.804 322.794 239.46 323.642 239.008C324.803 238.467 325.898 237.794 326.904 237.001C327.392 236.673 327.806 236.247 328.119 235.75C328.432 235.253 328.638 234.695 328.723 234.114C328.8 232.534 327.365 231.611 326.084 231.09C324.21 230.446 322.249 230.092 320.268 230.039C319.953 230.042 319.651 230.169 319.429 230.393C319.206 230.617 319.081 230.92 319.081 231.235C319.092 231.543 319.218 231.836 319.435 232.054C319.652 232.273 319.944 232.401 320.251 232.414L321.268 232.499L321.848 232.559H322.07H322.352H322.523L322.865 232.61L323.428 232.713C323.832 232.789 324.231 232.885 324.624 233.003L325.136 233.174L325.333 233.251C325.085 233.157 325.392 233.251 325.427 233.251C325.461 233.251 325.726 233.405 325.862 233.482L326.067 233.618C326.349 233.781 325.965 233.507 326.067 233.618L326.281 233.823C326.443 233.969 326.135 233.576 326.229 233.755L326.289 233.849C326.443 234.08 326.204 233.576 326.289 233.849C326.375 234.122 326.289 233.584 326.289 233.849C326.285 233.897 326.285 233.946 326.289 233.994C326.289 233.994 326.375 233.678 326.289 233.815C326.255 233.888 326.232 233.965 326.221 234.045C326.178 234.242 326.366 233.781 326.221 233.951C326.221 233.951 326.178 234.028 326.161 234.071C326.144 234.114 326.05 234.242 325.99 234.336C325.93 234.43 326.187 234.105 326.033 234.276L325.93 234.396C325.862 234.481 325.785 234.558 325.717 234.635C325.649 234.712 325.316 234.985 325.119 235.164C325.059 235.207 324.957 235.31 325.187 235.113L325.008 235.241C324.906 235.318 324.803 235.395 324.692 235.463C324.581 235.532 324.214 235.779 323.975 235.925C323.505 236.206 323.027 236.463 322.54 236.702L321.754 237.069L321.626 237.12C321.985 237.009 321.695 237.12 321.626 237.12L321.285 237.249C320.944 237.386 320.593 237.495 320.234 237.573C320.081 237.613 319.938 237.682 319.812 237.778C319.686 237.873 319.58 237.993 319.501 238.13C319.422 238.266 319.37 238.417 319.349 238.574C319.329 238.73 319.339 238.89 319.38 239.042C319.466 239.347 319.668 239.607 319.942 239.767C320.216 239.926 320.541 239.973 320.849 239.896L320.96 240.033Z" fill="#010101"/>
<path d="M196.071 262.258C191.909 262.785 187.683 262.424 183.671 261.199C180.793 260.345 175.182 258.585 175.985 254.614C176.343 252.76 177.693 251.197 178.974 249.89C180.277 248.569 181.707 247.378 183.244 246.337C186.404 244.192 189.947 242.672 193.679 241.861C195.183 241.528 194.533 239.222 193.048 239.555C186.54 240.99 179.981 244.56 175.814 249.856C173.815 252.418 172.526 255.912 174.661 258.79C176.625 261.43 180.434 262.728 183.466 263.616C187.567 264.82 191.871 265.172 196.113 264.65C197.616 264.462 197.634 262.087 196.113 262.258H196.071Z" fill="#010101"/>
<path d="M191.109 246.935C189.497 247.112 187.926 247.559 186.463 248.259C185.058 248.889 183.808 249.819 182.799 250.983C182.293 251.595 181.977 252.341 181.889 253.13C181.801 253.919 181.945 254.717 182.304 255.425C182.642 256.085 183.11 256.67 183.679 257.146C184.249 257.621 184.908 257.977 185.618 258.192C187.471 258.773 189.444 258.483 191.322 258.192C191.63 258.11 191.893 257.91 192.053 257.634C192.213 257.359 192.257 257.031 192.176 256.723C192.088 256.419 191.887 256.161 191.613 256.002C191.34 255.843 191.015 255.795 190.708 255.869C189.162 256.1 187.454 256.365 185.968 255.758C186.104 255.809 185.72 255.63 185.677 255.604C185.53 255.518 185.387 255.424 185.25 255.323C185.327 255.374 185.302 255.323 185.191 255.263L185.003 255.083C185.003 255.083 184.695 254.75 184.772 254.844C184.673 254.707 184.582 254.564 184.499 254.417C184.457 254.346 184.42 254.272 184.388 254.195C184.388 254.289 184.388 254.272 184.388 254.135C184.332 253.982 184.289 253.825 184.26 253.665C184.26 253.879 184.26 253.426 184.26 253.384C184.26 253.341 184.26 253.221 184.26 253.341C184.26 253.255 184.26 253.179 184.311 253.093C184.35 252.973 184.405 252.858 184.473 252.751C184.641 252.475 184.852 252.227 185.097 252.017C185.646 251.517 186.251 251.081 186.899 250.719C188.214 249.967 189.665 249.485 191.169 249.301C191.483 249.292 191.782 249.163 192.005 248.941C192.227 248.718 192.356 248.419 192.364 248.105C192.362 247.788 192.235 247.486 192.012 247.262C191.788 247.038 191.485 246.911 191.169 246.909L191.109 246.935Z" fill="#010101"/>
<path d="M257.098 250.949C259.182 256.305 261.564 261.66 263.255 267.016C263.347 267.322 263.366 267.645 263.311 267.959C263.256 268.274 263.128 268.572 262.939 268.828C262.749 269.085 262.502 269.295 262.218 269.439C261.933 269.584 261.619 269.661 261.299 269.664L253.613 269.724C253.325 269.722 253.04 269.659 252.778 269.54C252.515 269.421 252.281 269.248 252.09 269.032C251.899 268.816 251.755 268.562 251.669 268.286C251.583 268.011 251.556 267.721 251.589 267.434L253.127 251.445C253.178 250.985 253.383 250.557 253.708 250.228C254.033 249.9 254.459 249.69 254.917 249.632C255.376 249.575 255.84 249.674 256.236 249.913C256.631 250.152 256.935 250.517 257.098 250.949Z" fill="#C05929"/>
<path d="M188.402 167.814L316.408 163.202L294.264 106.306H210.965L188.402 167.814Z" fill="#153A23"/>
<path d="M213.783 340.994C241.34 338.114 269.094 337.588 296.741 339.423C298.269 339.525 298.269 337.134 296.741 337.031C269.094 335.196 241.34 335.722 213.783 338.603C212.263 338.756 212.254 341.165 213.783 340.994Z" fill="#153A23"/>
<path d="M93.3084 496.571C87.9624 493.205 85.2381 486.099 87.45 480.119C89.6618 474.14 96.6476 470.322 102.984 471.492V469.195C93.3853 472.398 86.0836 461.14 86.1775 452.769C86.2287 447.858 87.9367 442.665 91.6773 439.316C95.4178 435.968 100.824 434.738 105.427 436.754C106.819 437.377 107.989 435.31 106.631 434.687C104.133 433.609 101.394 433.213 98.6933 433.541C95.9927 433.868 93.4272 434.906 91.2588 436.549C86.4252 440.119 84.0339 446.124 83.7863 452.001C83.3507 462.08 92.147 475.293 103.591 471.467C104.615 471.125 104.837 469.391 103.591 469.169C96.1693 467.794 88.2186 471.732 85.3576 478.847C82.4967 485.962 85.6138 494.614 92.0787 498.646C93.3853 499.5 94.5894 497.399 93.2828 496.588L93.3084 496.571Z" fill="#153A23"/>
<path d="M145.377 397.702C143.141 397.36 141.05 396.386 139.351 394.893C137.651 393.401 136.414 391.453 135.787 389.28C134.343 384.522 136.333 379.671 140.227 376.732C148.895 370.207 160.296 376.638 161.825 386.692L162.679 385.223C159.212 385.855 156.308 382.43 156.129 379.184C155.95 375.938 158.631 373.504 161.518 372.607C168.913 370.335 174.481 377.057 176.113 383.549C176.488 385.035 178.794 384.403 178.418 382.908C177.24 378.227 174.575 373.683 170.237 371.3C168.376 370.278 166.279 369.761 164.156 369.801C162.032 369.842 159.957 370.438 158.136 371.531C154.72 373.675 152.867 377.663 154.199 381.61C155.531 385.556 159.161 388.289 163.311 387.529C163.617 387.445 163.879 387.244 164.038 386.969C164.198 386.694 164.244 386.368 164.165 386.06C163.719 383.202 162.567 380.501 160.813 378.201C159.059 375.901 156.76 374.075 154.122 372.889C151.542 371.771 148.703 371.388 145.92 371.783C143.136 372.178 140.516 373.335 138.349 375.127C136.169 376.778 134.528 379.04 133.634 381.625C132.74 384.209 132.633 387.002 133.327 389.647C134.787 394.909 139.22 399.274 144.711 400.017C146.214 400.213 146.863 397.915 145.343 397.71L145.377 397.702Z" fill="#153A23"/>
<path d="M327.083 369.711C338.237 365.372 351.713 375.297 350.816 387.256L352.012 386.06C348.852 385.761 346.632 383.045 345.957 380.081C345.214 376.792 346.64 373.632 349.014 371.377C354.949 365.739 363.788 366.807 371.218 367.832C372.721 368.037 373.37 365.739 371.85 365.526C362.823 364.279 351.474 363.297 345.504 371.838C341.234 377.886 344.035 387.708 352.037 388.46C352.353 388.456 352.655 388.328 352.878 388.105C353.101 387.882 353.229 387.58 353.233 387.264C354.232 373.854 339.014 362.536 326.469 367.414C325.051 367.969 325.666 370.275 327.109 369.72L327.083 369.711Z" fill="#153A23"/>
<path d="M376.009 392.825C379.203 391.074 382.986 393.405 384.549 396.301C386.744 400.307 385.48 405.406 384.455 409.566C384.402 409.769 384.403 409.983 384.459 410.186C384.514 410.388 384.621 410.573 384.769 410.721C384.918 410.87 385.102 410.977 385.305 411.032C385.508 411.087 385.721 411.088 385.924 411.035C394.336 408.473 403.295 417.869 400.442 426.12C399.938 427.58 402.244 428.212 402.74 426.76C406.156 416.758 395.344 405.663 385.267 408.729L386.736 410.198C388.017 404.996 389.298 398.633 385.882 393.969C383.32 390.553 378.734 388.622 374.779 390.783C373.43 391.518 374.634 393.585 375.984 392.842L376.009 392.825Z" fill="#153A23"/>
<path d="M420.426 441.033C424.781 440.538 428.172 444.45 428.377 448.575C428.59 452.915 426.105 456.989 423.381 460.149C418.335 465.956 411.557 469.987 404.046 471.646C402.748 471.937 403.013 474.081 404.362 473.987C409.802 473.628 414.559 478.104 413.611 483.673C413.424 484.807 413.021 485.894 412.424 486.876C411.877 487.73 410.716 488.422 410.28 489.293C409.845 490.164 410.349 491.702 410.468 492.607L411.049 497.117C411.245 498.621 413.611 498.638 413.44 497.117L413.03 493.957C412.919 493.103 412.424 491.625 412.62 490.796C412.868 489.789 413.901 489.02 414.482 488.08C415.873 485.794 416.405 483.087 415.985 480.444C415.046 474.995 409.802 471.236 404.362 471.578L404.687 473.918C414.038 471.809 423.031 466.077 428.052 457.766C430.392 453.897 431.759 449.011 429.888 444.681C428.283 440.948 424.593 438.138 420.426 438.616C418.914 438.795 418.897 441.179 420.426 441.008V441.033Z" fill="#153A23"/>
<path d="M401.928 428.528C406.028 426.974 411.553 425.966 415.285 429.007C417.847 431.082 419.435 435.533 416.993 438.317C415.985 439.47 417.668 441.17 418.701 440.025C421.152 437.207 421.007 433.192 419.213 430.066C417.095 426.35 412.971 424.685 408.82 424.719C406.238 424.776 403.688 425.294 401.288 426.248C399.862 426.794 400.476 429.101 401.92 428.554L401.928 428.528Z" fill="#153A23"/>
<path d="M210.666 366.047C208.792 357.791 210.071 349.133 214.252 341.772C214.397 341.5 214.431 341.183 214.347 340.886C214.263 340.59 214.069 340.337 213.803 340.181C213.538 340.024 213.223 339.977 212.923 340.047C212.623 340.117 212.362 340.301 212.194 340.559C207.705 348.483 206.343 357.801 208.377 366.679C208.727 368.182 211.033 367.533 210.683 366.047H210.666Z" fill="#153A23"/>
<path d="M222.741 362.562C221.954 360.051 221.782 357.387 222.242 354.795C222.701 352.204 223.778 349.761 225.38 347.674C225.536 347.398 225.578 347.072 225.497 346.765C225.415 346.458 225.217 346.196 224.945 346.034C224.668 345.885 224.346 345.847 224.042 345.927C223.739 346.008 223.478 346.202 223.313 346.47C221.544 348.83 220.36 351.577 219.86 354.485C219.359 357.393 219.557 360.377 220.435 363.194C220.905 364.655 223.211 364.048 222.741 362.562Z" fill="#153A23"/>
<path d="M238.412 366.414C239.13 362.143 238.318 357.531 237.729 353.311C237.14 349.092 236.602 344.428 234.953 340.431C234.373 339.021 232.058 339.636 232.648 341.063C234.219 344.872 234.749 349.263 235.329 353.311C235.688 355.746 235.97 358.189 236.123 360.649C236.319 362.351 236.319 364.071 236.123 365.774C235.876 367.277 238.173 367.926 238.429 366.406L238.412 366.414Z" fill="#153A23"/>
<path d="M246.713 345.641C247.174 351.04 246.953 356.475 246.056 361.819C245.799 363.322 248.105 363.971 248.361 362.451C249.313 356.901 249.562 351.253 249.104 345.641C248.976 344.121 246.585 344.112 246.713 345.641Z" fill="#153A23"/>
<path d="M261.12 362.314C262.401 358.298 262.865 354.067 262.487 349.869C262.351 345.679 261.321 341.567 259.463 337.808C258.737 336.45 256.671 337.655 257.405 339.013C259.224 342.429 259.899 346.41 260.121 350.219C260.442 354.089 259.998 357.984 258.814 361.682C258.302 363.134 260.608 363.758 261.12 362.314Z" fill="#153A23"/>
<path d="M267.816 343.702C271.187 349.398 272.351 356.133 271.086 362.63C270.787 364.134 273.093 364.774 273.392 363.262C274.801 356.142 273.546 348.753 269.865 342.498C269.705 342.224 269.443 342.024 269.137 341.943C268.83 341.862 268.504 341.907 268.23 342.066C267.956 342.226 267.756 342.488 267.675 342.795C267.594 343.102 267.639 343.428 267.798 343.702H267.816Z" fill="#153A23"/>
<path d="M296.963 342.506C300.636 348.34 302.223 355.248 301.463 362.101C301.301 363.63 303.692 363.621 303.854 362.101C304.633 354.824 302.939 347.498 299.046 341.302C298.192 340.004 296.16 341.199 296.98 342.506H296.963Z" fill="#153A23"/>
<path d="M288.363 362.306C287.088 359.62 286.456 356.674 286.517 353.701C286.577 350.729 287.329 347.811 288.713 345.18C289.439 343.822 287.381 342.617 286.655 343.975C285.07 346.976 284.212 350.308 284.152 353.701C284.091 357.094 284.828 360.454 286.305 363.51C286.971 364.894 289.029 363.681 288.363 362.306Z" fill="#153A23"/>
<path d="M225.807 372.077C241.099 371.121 256.383 370.084 271.659 368.968C279.225 368.399 286.786 367.829 294.341 367.26C298.116 366.969 301.893 366.685 305.674 366.406C308.577 366.166 311.421 365.893 313.932 364.304C315.221 363.45 314.026 361.409 312.719 362.237C309.696 364.159 305.827 364.005 302.369 364.279L291.975 365.133C284.574 365.702 277.173 366.258 269.771 366.799C255.128 367.858 240.473 368.848 225.807 369.771C224.287 369.865 224.27 372.257 225.807 372.154V372.077Z" fill="#153A23"/>
<path d="M107.92 434.67C104.607 432.842 101.37 429.545 101.532 425.471C101.669 421.977 105.521 418.304 109.082 419.927C110.047 420.363 111.49 419.372 110.722 418.287C109.543 416.647 108.365 414.315 109.355 412.308C110.132 410.745 112.378 409.976 113.625 411.454C114.436 412.393 115.897 411.385 115.624 410.292C114.872 407.337 113.813 401.511 118.391 401.195C122.797 400.896 125 405.534 126.572 408.883C127.101 410.01 128.775 409.378 128.801 408.276L129.031 399.735C129.031 398.684 128.673 396.318 129.945 395.84C131.388 395.336 132.772 397.275 133.515 398.189C134.488 399.385 136.171 397.685 135.223 396.48C133.472 394.336 129.766 391.663 127.434 394.772C126.367 396.181 126.7 398.479 126.649 400.119L126.427 408.302L128.656 407.704C126.546 403.228 122.977 397.514 117.092 399.017C111.678 400.392 112.267 406.773 113.335 410.975L115.333 409.814C113.437 407.619 110.013 408.054 108.1 410.027C105.538 412.718 106.75 416.912 108.663 419.577L110.295 417.945C105.794 415.895 100.687 419.022 99.4231 423.626C97.9115 429.143 102.199 434.32 106.725 436.814C108.074 437.557 109.287 435.498 107.929 434.755L107.92 434.67Z" fill="#153A23"/>
<path d="M178.547 372.043C179.408 369.496 181.012 367.265 183.151 365.636C185.29 364.007 187.867 363.054 190.551 362.901C193.235 362.748 195.903 363.4 198.214 364.775C200.525 366.15 202.371 368.184 203.518 370.616C204.209 371.992 206.267 370.787 205.584 369.412C204.199 366.575 201.999 364.215 199.266 362.634C196.532 361.054 193.39 360.324 190.24 360.539C187.09 360.753 184.076 361.902 181.582 363.839C179.089 365.776 177.229 368.412 176.241 371.411C175.728 372.863 178.043 373.486 178.547 372.043Z" fill="#153A23"/>
<path d="M226.089 476.976C224.381 474.414 222.852 471.048 224.424 468.042C226.08 464.873 229.394 465.436 231.853 467.256C235.637 470.066 241.914 476.891 238.685 481.862L240.564 481.623C238.728 480.06 238.856 477.352 240.146 475.473C241.615 473.295 244.373 472.432 246.824 471.962C250.872 471.176 257.243 470.45 259.72 474.636C259.879 474.91 260.141 475.109 260.448 475.19C260.755 475.271 261.081 475.227 261.355 475.067C261.629 474.907 261.828 474.645 261.909 474.339C261.99 474.032 261.946 473.705 261.786 473.431C258.439 467.768 249.899 468.511 244.467 470.057C241.435 470.912 238.566 472.62 237.37 475.686C236.328 478.3 236.653 481.426 238.873 483.314C239.005 483.439 239.162 483.533 239.335 483.59C239.507 483.646 239.69 483.664 239.87 483.641C240.05 483.618 240.222 483.555 240.375 483.457C240.527 483.36 240.656 483.229 240.752 483.075C242.913 479.658 241.803 475.832 239.813 472.646C237.729 469.297 234.629 465.624 230.965 463.984C229.437 463.24 227.679 463.122 226.065 463.655C224.45 464.188 223.108 465.329 222.323 466.837C220.299 470.621 221.819 474.841 223.988 478.18C224.842 479.47 226.892 478.274 226.055 476.976H226.089Z" fill="#153A23"/>
<path d="M283.128 406.448C284.162 405.981 285.281 405.734 286.415 405.722C287.549 405.71 288.674 405.933 289.717 406.378C290.761 406.822 291.7 407.479 292.477 408.306C293.254 409.132 293.851 410.111 294.23 411.18C294.597 412.227 294.743 413.338 294.657 414.443C294.597 415.246 294.247 417.091 293.231 417.236C291.933 417.416 292.428 415.665 292.966 415.152C293.841 414.466 294.92 414.09 296.032 414.085C300.302 413.786 304.179 416.809 306.083 420.414C308.492 424.949 308.261 430.45 307.535 435.379C307.313 436.882 309.61 437.531 309.833 436.019C310.687 430.416 310.891 424.36 308.125 419.201C305.921 415.05 301.472 411.693 296.647 411.667C294.495 411.667 291.856 412.299 290.609 414.23C289.567 415.819 289.755 418.287 291.548 419.295C293.581 420.465 295.639 418.808 296.459 416.98C297.318 414.693 297.248 412.161 296.262 409.925C295.739 408.642 294.967 407.475 293.992 406.491C293.016 405.506 291.857 404.724 290.579 404.189C289.301 403.653 287.93 403.375 286.545 403.37C285.159 403.365 283.786 403.633 282.504 404.159C281.095 404.74 281.71 407.055 283.136 406.466L283.128 406.448Z" fill="#153A23"/>
<path d="M193.406 405.919C199.273 407.268 205.567 402.272 205.422 396.207C205.422 394.67 202.997 394.661 203.031 396.207C203.142 400.683 198.376 404.612 194.047 403.613C192.544 403.262 191.912 405.569 193.406 405.919Z" fill="#153A23"/>
<path d="M125.658 450.514C122.908 448.362 118.211 449.737 117.537 453.359C116.802 457.296 121.473 460.286 124.864 458.484L123.105 457.775C123.489 458.825 122.011 459.85 121.397 460.559C120.88 461.075 120.478 461.694 120.216 462.375C119.954 463.056 119.838 463.785 119.876 464.514C120.175 467.623 123.181 469.912 125.684 471.347C125.955 471.48 126.266 471.505 126.554 471.418C126.843 471.33 127.088 471.137 127.241 470.877C127.393 470.616 127.441 470.308 127.376 470.014C127.31 469.719 127.136 469.46 126.888 469.289C125.129 468.281 121.491 465.941 122.353 463.412C122.737 462.276 123.882 461.465 124.608 460.551C125.032 460.103 125.329 459.551 125.47 458.951C125.611 458.351 125.591 457.724 125.41 457.134C125.357 456.96 125.265 456.801 125.142 456.667C125.019 456.533 124.868 456.428 124.7 456.361C124.531 456.293 124.349 456.263 124.168 456.274C123.987 456.286 123.81 456.337 123.651 456.425C122.02 457.279 119.501 455.656 119.876 453.76C120.201 452.163 122.652 451.138 123.967 452.172C125.282 453.205 126.871 451.428 125.675 450.463L125.658 450.514Z" fill="#153A23"/>
<path d="M337.972 449.37C337.485 453.888 337.323 458.766 339.005 463.096C340.688 467.427 343.916 469.238 348.322 470.297C349.646 470.621 352.046 471.313 352.131 473.073C352.217 474.832 349.928 474.986 348.869 475.635C348.058 476.148 347.365 476.827 346.834 477.626C346.302 478.425 345.946 479.327 345.786 480.273C344.608 485.894 349.441 491.813 346.888 497.092C346.222 498.467 348.288 499.654 348.954 498.296C351.687 492.633 347.46 487.517 347.972 481.785C347.985 481.036 348.155 480.298 348.473 479.619C348.791 478.94 349.249 478.337 349.817 477.847C350.671 477.198 351.858 477.062 352.78 476.481C353.553 476.003 354.124 475.259 354.386 474.388C354.647 473.518 354.58 472.582 354.198 471.757C353.344 469.656 351.397 468.657 349.322 468.11C346.452 467.35 343.933 466.863 342.208 464.215C339.466 460.004 339.842 454.162 340.363 449.396C340.525 447.875 338.134 447.884 337.972 449.396V449.37Z" fill="#153A23"/>
<path d="M173.457 447.764C175.017 450.444 175.684 453.552 175.362 456.637C175.04 459.722 173.744 462.624 171.663 464.924C171.537 465.054 171.441 465.211 171.384 465.383C171.326 465.555 171.308 465.737 171.331 465.917C171.354 466.097 171.418 466.269 171.517 466.421C171.615 466.573 171.747 466.701 171.902 466.795C177.547 469.186 178.299 476.19 177.932 481.563C177.505 487.832 176.283 494.469 179.921 500.064C180.775 501.354 182.825 500.158 181.988 498.86C177.846 492.479 180.767 484.8 180.357 477.779C180.058 472.594 178.265 466.914 173.107 464.736L173.354 466.607C175.797 463.927 177.325 460.539 177.715 456.933C178.104 453.328 177.337 449.691 175.523 446.551C175.363 446.277 175.099 446.078 174.792 445.998C174.484 445.918 174.158 445.963 173.884 446.124C173.61 446.285 173.411 446.548 173.331 446.856C173.25 447.163 173.296 447.49 173.457 447.764Z" fill="#153A23"/>
<path d="M76.6383 351.996C77.8358 347.701 79.337 343.497 81.1303 339.414C81.4292 338.791 81.9843 338.065 82.6334 338.338C83.2824 338.611 83.1629 339.406 83.0177 340.046C82.1067 343.89 81.1901 347.731 80.2678 351.569C83.859 351.234 87.4776 351.785 90.8062 353.175C90.897 353.217 90.9748 353.284 91.0315 353.366C91.0882 353.449 91.1217 353.546 91.1287 353.646C91.1357 353.746 91.1158 353.846 91.0711 353.936C91.0264 354.026 90.9585 354.102 90.8745 354.157C88.8752 355.439 86.5252 356.063 84.1535 355.942C83.2995 355.942 82.3345 355.797 81.7196 356.378C81.357 356.802 81.123 357.32 81.0449 357.873C80.2571 361.183 79.0398 364.376 77.424 367.371C77.3583 367.484 77.2599 367.575 77.1417 367.631C77.0235 367.687 76.8911 367.707 76.7618 367.686C76.6325 367.666 76.5124 367.607 76.4172 367.517C76.322 367.427 76.2562 367.311 76.2284 367.183C75.5537 364.202 76.8945 360.845 76.8176 357.659C76.8408 357.302 76.7512 356.946 76.5614 356.643C76.2495 356.317 75.8314 356.114 75.3829 356.07C72.0089 355.319 68.6971 354.311 65.4764 353.055C64.6224 352.722 63.5806 351.757 64.2211 351.074C64.4361 350.885 64.7049 350.768 64.9897 350.74C66.9876 350.335 69.0466 350.335 71.0446 350.74L76.6383 351.996Z" fill="white"/>
<path d="M48.7209 381.558C45.4757 384.633 46.2699 391.142 51.838 389.579C60.0706 387.273 54.289 376.288 48.7209 381.558Z" fill="white"/>
<path d="M57.4744 244.09C53.0165 248.301 54.1182 257.227 61.7445 255.083C73.0173 251.923 65.1007 236.873 57.4744 244.09Z" fill="white"/>
<path d="M167.222 90.8887C166.99 86.4437 167.079 81.9877 167.487 77.5553C167.564 76.8806 167.88 76.0008 168.563 76.0606C169.246 76.1204 169.417 76.9147 169.468 77.5297C169.839 81.4588 170.197 85.3937 170.545 89.3342C173.841 87.8628 177.448 87.2262 181.049 87.4807C181.149 87.4903 181.245 87.527 181.326 87.5868C181.407 87.6467 181.47 87.7274 181.509 87.8205C181.547 87.9135 181.56 88.0153 181.545 88.1149C181.53 88.2145 181.489 88.3083 181.425 88.3861C179.94 90.2375 177.917 91.5809 175.634 92.2298C174.78 92.4604 173.858 92.6654 173.457 93.4256C173.251 93.9436 173.198 94.5097 173.303 95.057C173.621 98.4764 173.486 101.923 172.902 105.307C172.876 105.436 172.812 105.554 172.718 105.646C172.624 105.738 172.504 105.799 172.374 105.821C172.245 105.844 172.111 105.826 171.992 105.771C171.873 105.715 171.773 105.625 171.706 105.512C170.118 102.898 170.314 99.2936 169.229 96.3041C169.123 95.9709 168.925 95.6747 168.657 95.4499C168.252 95.2498 167.792 95.1926 167.351 95.2876C163.913 95.6534 160.453 95.759 157 95.6037C156.069 95.6037 154.797 94.9716 155.181 94.1345C155.325 93.884 155.543 93.6842 155.804 93.5623C157.575 92.5525 159.529 91.905 161.552 91.6575L167.222 90.8887Z" fill="white"/>
<path d="M153.089 117.735C150.621 120.067 151.227 125.012 155.463 123.825C161.714 122.074 157.325 113.729 153.089 117.735Z" fill="white"/>
<path d="M343.147 77.1881C338.501 81.587 339.646 90.8546 347.605 88.668C359.373 85.3624 351.115 69.6545 343.147 77.1881Z" fill="white"/>
<path d="M363.609 97.2266C361.141 99.5584 361.756 104.504 365.983 103.317C372.235 101.566 367.845 93.1864 363.609 97.2266Z" fill="white"/>
<path d="M102.19 260.413C99.722 262.745 100.328 267.691 104.556 266.503C110.807 264.752 106.417 256.407 102.19 260.413Z" fill="white"/>
<path d="M430.529 262.856C430.533 259.426 430.781 256.001 431.272 252.606C431.357 252.085 431.639 251.419 432.126 251.496C432.613 251.573 432.741 252.179 432.766 252.658C432.886 255.707 433.005 258.748 433.116 261.797C435.714 260.795 438.518 260.451 441.281 260.798C441.357 260.809 441.43 260.84 441.49 260.889C441.55 260.938 441.595 261.002 441.622 261.075C441.648 261.148 441.654 261.227 441.639 261.303C441.624 261.379 441.589 261.449 441.537 261.507C440.321 262.874 438.709 263.826 436.925 264.231C436.285 264.377 435.542 264.505 435.217 265.085C435.037 265.475 434.975 265.908 435.038 266.333C435.139 268.972 434.895 271.614 434.312 274.191C434.288 274.289 434.235 274.378 434.16 274.445C434.084 274.513 433.99 274.555 433.89 274.567C433.789 274.579 433.687 274.56 433.598 274.513C433.509 274.466 433.436 274.392 433.39 274.302C432.262 272.226 432.536 269.45 431.844 267.101C431.78 266.834 431.64 266.591 431.443 266.401C431.14 266.229 430.787 266.166 430.443 266.222C427.778 266.365 425.106 266.308 422.45 266.051C421.741 265.982 420.742 265.478 421.109 264.838C421.234 264.655 421.409 264.513 421.613 264.428C423.024 263.704 424.566 263.274 426.148 263.164L430.529 262.856Z" fill="white"/>
<path d="M455.415 235.429C452.169 238.504 452.964 245.013 458.532 243.45C466.756 241.144 460.983 230.168 455.415 235.429Z" fill="white"/>
<path d="M236.328 31.9007C233.083 34.9757 233.877 41.4843 239.446 39.9212C247.661 37.615 241.896 26.6391 236.328 31.9007Z" fill="white"/>
<path d="M427.258 375.989C422.023 380.943 423.313 391.424 432.28 388.913C445.534 385.189 436.225 367.507 427.258 375.989Z" fill="white"/>
</svg>
