<svg width="488" height="421" viewBox="0 0 488 421" fill="none" xmlns="http://www.w3.org/2000/svg">
<path d="M368.527 61.6429C475.288 156.545 491.769 237.143 486.704 265.589C463.873 392.714 363.865 415.938 333.878 417.625C294.325 419.795 230.816 416.902 189.012 418.027C74.6137 424.536 28.2275 360.33 19.3843 327.464C-35.2823 192.946 41.3314 89.3661 86.5118 54.4108C202.598 -46.2767 322.945 17.2858 368.527 61.6429Z" fill="#F7BC28"/>
<path d="M187.645 155.902C183.786 171.491 177.194 187.402 163.929 196.482C151.629 204.92 134.908 205.884 121.161 200.018C107.414 194.152 96.8019 182.098 91.4157 168.196C87.396 157.75 86.5921 144.732 94.2294 136.455C98.249 132.116 103.876 129.786 109.424 127.616L145.439 113.232C146.24 112.74 147.196 112.566 148.119 112.744C149.042 112.923 149.864 113.441 150.424 114.196L187.967 149.714" fill="#32142A"/>
<path d="M148.655 120.464C144.625 124.465 139.768 127.537 134.425 129.464C129.071 131.316 123.509 132.504 117.865 133C115.614 133.241 113.363 133.482 111.433 134.527C109.793 135.537 108.438 136.947 107.494 138.625C105.657 141.889 104.689 145.568 104.68 149.313C104.283 158.064 107.083 166.661 112.559 173.5C119.553 182.259 130.084 188.527 141.339 189.491C152.835 190.455 165.055 184.75 170.361 174.304C171.406 172.214 172.049 165.223 168.753 172.938C165.055 181.536 153.8 185.795 144.555 185.955C134.024 186.116 123.894 180.652 116.98 173.018C113.524 169.241 108.78 164.741 107.494 159.839C106.931 157.358 106.608 154.829 106.529 152.286C106.313 149.979 106.422 147.652 106.851 145.375C107.655 142 111.916 138.143 115.051 137.098C117.061 136.455 119.231 136.536 121.322 136.455C128.557 136.134 135.471 133.08 141.339 128.902C142.786 127.857 144.233 126.732 145.68 125.607C146.321 125.128 146.889 124.56 147.369 123.92C147.591 123.577 147.722 123.183 147.75 122.775C147.778 122.368 147.702 121.96 147.529 121.589C147.333 121.275 147.022 121.048 146.662 120.958C146.302 120.869 145.921 120.922 145.6 121.107C145.52 121.107 145.52 121.188 145.439 121.188L148.655 120.464Z" fill="#7F4341"/>
<path d="M120.598 155.58C120.196 152.366 119.553 148.268 121.884 145.616C124.216 142.964 128.316 142.804 131.612 142.884C135.712 143.045 142.625 141.277 146.565 139.268C149.941 137.58 150.584 139.429 153.398 137.098C155.167 135.571 152.594 133.08 150.825 134.527C147.851 137.098 144.314 139.509 140.375 140.071C136.114 140.714 131.612 138.866 127.351 139.348C123.814 139.75 120.276 141.196 118.267 144.33C116.096 147.625 119.231 153.089 119.714 156.786C119.718 157.253 119.906 157.701 120.236 158.031C120.567 158.362 121.015 158.549 121.482 158.554C122.447 158.634 120.759 156.545 120.598 155.58Z" fill="#7F4341"/>
<path d="M164.331 164.58C168.11 160.964 168.833 160.321 171.245 155.661C171.467 155.24 171.524 154.752 171.405 154.291C171.286 153.83 171 153.431 170.602 153.17C169.798 152.688 169.878 152.286 169.396 153.17C167.175 157.655 164.243 161.753 160.714 165.304C159.99 165.946 155.729 168.036 156.453 168.679C157.176 169.321 161.357 167.152 162.08 166.509L164.331 164.58Z" fill="#7F4341"/>
<path d="M167.306 311.393C174.461 314.929 182.661 316.134 190.539 315.571C196.649 315.17 206.296 314.446 209.029 307.857C214.818 293.795 220.606 278.366 226.474 263.982C228.323 259.482 223.42 256.67 219.963 255.223C213.823 252.86 207.219 251.952 200.669 252.571C195.523 252.973 186.278 254.661 183.304 259.562L181.776 262.616L167.306 311.393Z" fill="#E48929"/>
<path d="M172.773 313.643L173.657 313.723C178.32 314.045 201.151 315.25 209.431 306.893L210.476 304.241L172.773 313.643Z" fill="#C05929"/>
<path d="M221.731 273.625C223.098 274.027 224.384 274.429 225.671 274.911L226.153 275.071C226.41 275.174 226.653 275.309 226.876 275.473C227.118 275.634 227.359 275.714 227.6 275.875L227.922 276.116C228.324 276.357 227.68 275.955 228.002 276.196C228.832 276.845 229.482 277.695 229.89 278.665C230.298 279.636 230.451 280.695 230.333 281.741C229.931 286.562 225.51 289.616 221.008 290.339C220.525 290.42 221.329 290.339 220.847 290.339L220.284 290.42H218.194C218.033 290.42 217.31 290.339 217.551 290.339C216.2 290.183 214.891 289.775 213.692 289.134C213.1 288.807 212.406 288.717 211.75 288.881C211.094 289.045 210.524 289.451 210.155 290.018C209.981 290.312 209.868 290.638 209.823 290.977C209.777 291.315 209.8 291.66 209.89 291.989C209.98 292.319 210.135 292.627 210.346 292.896C210.557 293.165 210.82 293.388 211.12 293.553C214.047 295.049 217.332 295.705 220.609 295.45C223.887 295.194 227.03 294.037 229.69 292.107C232.584 289.937 234.835 286.884 235.318 283.268C235.638 281.539 235.566 279.761 235.107 278.064C234.647 276.368 233.813 274.796 232.665 273.464C230.253 270.652 226.475 269.527 223.018 268.482C219.882 267.679 218.516 272.661 221.731 273.625Z" fill="#E48929"/>
<path d="M177.676 280.134C177.991 282.312 178.745 284.404 179.892 286.282C181.039 288.161 182.555 289.787 184.349 291.062C187.886 293.714 193.996 295.321 198.337 295.723C196.89 297.812 192.71 298.696 190.218 299.339C187.716 300.036 185.067 300.008 182.58 299.259C178.882 298.054 176.149 294.839 174.782 291.223C173.553 287.549 173.276 283.623 173.978 279.812" fill="#C05929"/>
<path d="M144.716 118.375C139.249 91.3749 164.492 65.3392 189.253 59.0713C238.855 46.616 245.045 120.464 202.437 146.982C193.433 152.527 180.731 141.598 170.522 138.786C160.312 135.973 151.227 128.821 146.886 119.178" fill="#32142A"/>
<path d="M181.937 67.1875C166.1 69.4375 166.582 40.0268 181.696 37.0536C187.725 35.8482 194.8 37.9375 198.82 42.5982C201.312 45.4911 205.974 63.9732 199.463 64.7768C193.594 65.5 187.725 66.3036 181.937 67.1875Z" fill="#32142A"/>
<path d="M141.42 143.527C141.018 144.25 148.575 140.553 148.816 141.277C150.665 146.178 154.765 149.473 159.267 152.045C164.171 154.857 172.933 162.491 178.561 162.491C191.022 162.33 203.241 147.464 211.12 137.821C219.48 127.616 222.053 115.562 224.304 102.625C224.786 99.8124 224.867 96.6785 223.178 94.4285C222.187 93.21 220.92 92.2458 219.48 91.616C205.974 84.7856 189.092 88.7231 176.712 97.4017C165.618 105.277 157.498 116.366 149.861 127.616C147.61 130.991 146.082 135.491 141.42 143.527Z" fill="#FFC9A0"/>
<path d="M152.594 127.777C145.761 127.134 141.018 118.938 143.269 112.509C145.52 106.08 153.72 102.625 160.151 104.955C166.582 107.286 170.602 114.679 169.637 121.509" fill="#FFC9A0"/>
<path d="M130.888 157.75L147.931 134.607C148.261 134.019 148.81 133.586 149.459 133.402C149.786 133.423 150.106 133.513 150.397 133.665C150.687 133.817 150.943 134.029 151.147 134.286C155.167 137.982 159.508 142.402 159.106 147.866C158.945 150.518 157.578 152.929 156.292 155.259L146.404 172.938L130.888 157.75Z" fill="#FFC9A0"/>
<path d="M126.145 149.714C75.1764 172.455 47.6823 225.813 34.6588 277.482C29.6745 297.089 27.3431 316.616 25.7353 336.705C25.4941 339.679 23.7254 385.804 22.198 385.804C64.8862 385.884 88.2804 379.938 130.888 380.018C121.723 301.509 135.069 237.625 151.629 173.018L126.145 149.714Z" fill="#FAC7B7"/>
<path d="M226.716 93.2231C226.423 92.3578 226.046 91.5234 225.59 90.7321C220.767 81.7321 209.19 79.1606 199.784 80.9285C188.127 83.1785 177.918 90.7321 168.914 99.0892C165.376 102.384 159.025 107.607 158.222 110.178C157.418 112.75 174.863 119.5 178.561 119.982C188.288 121.348 198.418 120.062 207.824 117.25C212.647 115.803 219.882 114.518 223.982 111.464C224.947 110.661 229.047 99.7321 226.716 93.2231Z" fill="#32142A"/>
<path d="M150.343 329.795C153.88 321.277 162.884 316.134 171.888 313.884C180.892 311.634 190.298 311.473 199.302 309.223C208.306 306.973 217.39 301.991 221.008 293.554C222.455 290.179 221.892 284.795 218.194 284.554C216.798 284.603 215.451 285.08 214.335 285.92C209.753 288.732 205.573 292.188 200.829 294.679C196.086 297.17 190.539 298.777 185.314 297.491C180.088 296.205 175.506 291.545 175.667 286.161C175.92 283.848 176.378 281.563 177.033 279.33C177.435 277.884 172.049 280.857 170.602 282.464C169.155 284.072 167.627 285.679 166.984 287.768C163.045 300.464 150.504 308.098 138.927 314.607" fill="#FFC9A0"/>
<path d="M151.227 122.312C148.816 120.143 146.243 116.205 148.092 112.911C148.98 111.47 150.288 110.336 151.841 109.661C153.393 108.986 155.115 108.802 156.774 109.134C157.9 109.375 158.382 107.607 157.257 107.366C153.237 106.643 148.574 108.25 146.565 112.027C144.314 116.045 146.886 120.866 150.022 123.598C150.825 124.402 152.112 123.116 151.227 122.312Z" fill="#32142A"/>
<path d="M154.041 118.696C153.8 118.375 153.559 117.973 153.318 117.652C153.194 117.446 153.087 117.231 152.996 117.009C152.916 116.848 152.835 116.768 152.835 116.607C152.744 116.404 152.69 116.186 152.674 115.964C152.755 116.125 152.674 115.884 152.674 115.884V115.241C152.669 115.197 152.674 115.153 152.688 115.112C152.702 115.07 152.724 115.032 152.755 115C152.755 114.92 152.755 114.92 152.835 114.839C152.916 114.759 152.916 114.679 152.996 114.598C153.076 114.518 153.157 114.357 153.076 114.518L153.237 114.357L153.318 114.277C153.398 114.196 153.478 114.196 153.559 114.116C153.398 114.196 153.559 114.116 153.639 114.116C153.72 114.116 153.8 114.036 153.88 114.036H155.327L155.569 114.116L156.131 114.277C156.366 114.362 156.625 114.351 156.851 114.245C157.077 114.14 157.252 113.949 157.337 113.714C157.422 113.48 157.411 113.221 157.306 112.995C157.2 112.769 157.009 112.594 156.774 112.509C156.694 112.509 156.694 112.509 156.614 112.429C155.656 112.11 154.636 112.027 153.639 112.188C153.154 112.26 152.691 112.442 152.287 112.721C151.883 112.999 151.548 113.367 151.308 113.795C151.069 114.248 150.924 114.746 150.883 115.257C150.841 115.768 150.904 116.282 151.067 116.768C151.364 117.806 151.885 118.766 152.594 119.58C152.744 119.768 152.957 119.895 153.193 119.939C153.429 119.983 153.672 119.941 153.88 119.821C154.002 119.664 154.08 119.477 154.108 119.28C154.137 119.083 154.113 118.882 154.041 118.696Z" fill="#32142A"/>
<path d="M204.286 299.5C206.778 297.973 209.11 296.366 211.522 294.679C215.059 292.188 218.837 289.857 221.169 286.08C222.053 284.634 219.802 283.348 218.918 284.795C216.747 288.25 213.049 290.42 209.833 292.67C207.582 294.277 205.251 295.804 202.92 297.25C201.553 298.134 202.839 300.384 204.286 299.5Z" fill="#EFB086"/>
<path d="M209.833 302.152C212.447 300.54 214.921 298.712 217.229 296.687C219.4 294.679 221.41 292.348 223.42 290.098C224.545 288.893 222.696 287.045 221.571 288.25C219.561 290.42 217.631 292.67 215.461 294.679C213.32 296.602 211.005 298.324 208.547 299.821C207.18 300.786 208.467 303.036 209.833 302.152Z" fill="#EFB086"/>
<path d="M217.792 264.545C216.586 264.625 215.461 264.545 214.255 264.545C211.682 264.545 209.11 264.464 206.537 264.223C201.241 263.839 196.007 262.842 190.941 261.25C189.494 260.768 187.725 259.723 188.208 258.357C188.529 257.554 189.494 257.152 190.378 256.83C199.865 253.777 205.251 253.696 218.757 257.795C220.767 258.438 225.59 260.768 223.5 262.777C223.016 263.22 222.439 263.549 221.812 263.741C220.518 264.201 219.164 264.471 217.792 264.545Z" fill="#32142A"/>
<path d="M194.237 124C198.659 122.232 204.045 122.393 208.708 123.197C208.987 123.292 209.283 123.331 209.578 123.309C209.873 123.288 210.16 123.207 210.423 123.072C210.685 122.937 210.918 122.75 211.107 122.523C211.296 122.296 211.437 122.033 211.522 121.75C212.084 120.143 210.396 119.098 209.029 118.616C205.01 117.25 200.588 117.652 196.569 118.857C194.531 119.514 192.564 120.376 190.7 121.429C189.494 122.152 186.359 123.598 186.6 125.366C186.922 127.777 192.629 124.643 193.674 124.161L194.237 124Z" fill="#32142A"/>
<path d="M177.516 111.304C186.359 111.786 191.424 112.027 199.945 109.295C206.354 107.331 212.199 103.858 216.988 99.1697C219.561 96.5179 220.365 90.4108 221.169 86.7144C221.651 84.4644 219.4 88.3215 218.274 90.9733C215.943 96.5983 212.647 98.8483 207.663 101.822C201.887 105.367 195.363 107.513 188.61 108.089C183.465 108.411 179.043 108.973 169.637 108.893C167.306 108.893 171.004 110.902 173.335 111.063L177.516 111.304Z" fill="#7F4341"/>
<path d="M162 91.6161C163.769 87.6786 166.743 84.625 170.12 81.9732C175.425 77.7038 181.296 74.1884 187.565 71.5268C190.62 70.2411 193.996 68.7143 197.292 68.1518C200.427 67.5893 203.884 69.5179 206.618 70.8036C208.036 71.3381 209.385 72.0395 210.637 72.8929C211.29 73.388 211.792 74.0561 212.084 74.8214C212.406 76.3482 210.959 76.4286 209.753 76.5089C203.804 76.75 197.533 76.9107 191.665 78.3571C185.796 79.8036 180.973 83.1786 176.229 86.9554C175.425 87.5982 173.094 90.4107 173.737 91.0536C174.38 91.6964 179.284 86.7946 180.088 86.1518C183.187 83.5281 186.802 81.5843 190.7 80.4464C196.006 78.6786 202.598 80.4464 208.145 80.2054C211.039 80.0446 218.435 80.8482 217.631 79.2411C216.827 77.6339 213.773 70.4018 210.798 68.875C207.78 67.261 204.6 65.9682 201.312 65.0179C199.932 64.6028 198.484 64.4662 197.051 64.6161C195.798 64.8521 194.562 65.1742 193.353 65.5804C186.466 67.6792 180.088 71.1813 174.622 75.8661C168.351 81.3304 162.161 86.875 158.784 94.5893C157.739 96.6786 161.035 93.7857 162 91.6161Z" fill="#7F4341"/>
<path d="M184.349 99.3304C193.112 101.741 201.794 99.25 207.341 91.8572C207.904 91.0536 210.074 86.7947 209.673 86.7947C209.271 86.7947 208.065 88.9643 207.502 89.7679C202.92 95.875 191.745 98.9286 184.51 98.125C178.078 97.4822 182.018 98.7679 184.349 99.3304Z" fill="#7F4341"/>
<path d="M159.427 299.821L161.437 297.571L169.637 314.527L166.02 315.812L159.427 299.821Z" fill="#EFB086"/>
<path d="M158.222 151.563L148.816 141.357L154.202 159.116L158.222 151.563Z" fill="#EFB086"/>
<path d="M200.267 128.179C198.096 128.339 195.363 130.027 195.363 132.036C195.363 134.688 198.9 133.563 200.106 132.679C200.99 132.036 202.598 131.072 202.678 129.866C202.759 128.661 201.633 128.098 200.267 128.179Z" fill="#32142A"/>
<path d="M210.718 134.929C208.788 135.893 206.859 138.464 207.663 140.393C208.708 142.884 211.522 140.473 212.325 139.107C212.888 138.223 214.014 136.696 213.612 135.491C213.21 134.286 211.923 134.286 210.718 134.929Z" fill="#32142A"/>
<path d="M22.198 358.964C23.0823 349.241 21.0725 337.348 20.9921 327.625C20.9117 319.75 20.4294 313.804 22.9215 306.411C23.1169 305.877 23.5087 305.439 24.0168 305.185C24.5249 304.931 25.1109 304.881 25.6549 305.045C25.9682 305.159 26.2528 305.341 26.4888 305.577C26.7248 305.813 26.9066 306.097 27.0215 306.411C29.3529 313.241 33.2921 320.232 34.8196 327.384C34.8357 327.513 34.8784 327.637 34.9449 327.748C35.0115 327.86 35.1004 327.957 35.2062 328.032C35.3119 328.108 35.4322 328.16 35.5594 328.187C35.6865 328.214 35.8179 328.214 35.9451 328.187C36.111 328.152 36.2649 328.074 36.3917 327.961C36.5185 327.849 36.6139 327.705 36.6686 327.545C37.9549 323.125 38.1157 318.384 38.6784 313.804C39.0024 310.496 39.8716 307.265 41.251 304.241C41.7118 303.359 42.4975 302.689 43.4423 302.375C44.3871 302.06 45.4172 302.124 46.3157 302.554C46.7536 302.752 47.1447 303.041 47.4633 303.401C47.7819 303.761 48.0209 304.184 48.1647 304.643L51.7823 314.446C52.4424 316.289 53.2212 318.088 54.1137 319.83C55.7079 322.373 57.7508 324.606 60.1431 326.42C71.3176 335.661 86.0294 339.839 100.5 340.482C114.971 341.125 129.441 338.312 143.429 334.696L130.808 359.446L131.853 422.366H22.0372L22.198 358.964Z" fill="#E48929"/>
<path d="M58.8568 358.804C54.6764 349.482 49.2902 333.089 46.9588 324.411C41.8941 305.687 37.8745 286.482 39.3215 267.116L43.1 260.125C57.0882 291.062 72.6039 323.768 101.304 341.929C102.671 342.812 104.118 343.696 104.922 345.062C105.645 346.268 128.476 344.259 128.557 345.705C128.959 350.205 130.004 354.304 130.969 359.366L58.8568 358.804Z" fill="#E48929"/>
<path d="M89.1647 238.991C91.898 217.536 103.555 196.804 104.359 175.188C104.439 172.616 104.359 169.964 102.831 167.875C98.8922 162.33 90.1294 165.947 84.9843 170.286C56.7667 193.83 38.598 229.83 39.1608 266.554C39.3216 276.759 40.849 286.884 42.8588 296.929C46.1549 313.563 51.0588 330.759 63.1176 342.732C78.2314 357.679 101.867 361.054 122.608 356.714C143.349 352.375 162.08 341.286 180.329 330.438C171.647 308.982 162.965 287.58 154.282 266.232C143.671 272.741 132.576 279.491 120.196 280.697C105.002 282.143 92.3 272.982 89.4863 257.875C88.3751 251.638 88.2665 245.263 89.1647 238.991Z" fill="#FAC7B7"/>
<path d="M92.3 168.518C95.4353 167.393 98.8921 167.152 101.706 169.161C104.198 170.848 105.404 173.982 105.645 176.875C105.794 178.933 105.577 181.001 105.002 182.982C104.906 183.313 104.945 183.667 105.111 183.969C105.277 184.27 105.556 184.493 105.886 184.589C106.217 184.685 106.572 184.646 106.873 184.48C107.175 184.314 107.398 184.036 107.494 183.705C108.692 179.735 108.464 175.472 106.851 171.652C106.147 169.993 105.032 168.539 103.612 167.429C102.192 166.318 100.512 165.587 98.7314 165.304C96.2903 164.968 93.8038 165.244 91.4961 166.107C90.049 166.589 90.6922 169.08 92.3 168.518Z" fill="#F9A793"/>
<path d="M45.6725 309.545C44.7882 306.009 76.9451 312.116 79.598 312.759C85.2254 314.045 86.7529 317.902 88.3607 323.045C91.898 334.696 95.596 346.348 98.5705 358.161C98.6509 358.08 58.2137 359.527 45.6725 309.545Z" fill="#F9B7A5"/>
<path d="M153.8 265.027C148.916 267.943 143.808 270.469 138.525 272.58C133.672 274.653 128.674 276.372 123.573 277.723C118.735 279.103 113.603 279.075 108.78 277.643C103.314 276.036 98.0882 272.821 95.1137 267.92C91.9589 262.478 90.321 256.29 90.3706 250C90.3706 249.659 90.2351 249.332 89.9938 249.091C89.7526 248.85 89.4254 248.714 89.0843 248.714C88.7432 248.714 88.416 248.85 88.1748 249.091C87.9335 249.332 87.798 249.659 87.798 250C87.784 255.871 89.1034 261.668 91.6568 266.955C94.3902 272.58 98.9725 276.438 104.68 278.929C110.025 281.315 115.97 282.015 121.724 280.938C126.832 279.744 131.833 278.131 136.676 276.116C142.958 273.781 149.013 270.876 154.765 267.438L153.8 265.027Z" fill="#F9A793"/>
<path d="M205.09 133.321C204.769 133.562 204.447 133.804 204.206 133.964C200.91 136.777 198.096 140.393 195.122 143.607C194.607 144.035 194.264 144.634 194.157 145.295C194.157 146.098 194.88 146.741 195.604 147.223C198.176 149.071 201.151 151 204.608 148.509C205.955 147.474 206.941 146.04 207.422 144.411C208.529 140.953 209.125 137.353 209.19 133.723C209.271 130.911 206.778 132.196 205.09 133.321Z" fill="#E48929"/>
<path d="M200.347 393.839C200.347 393.839 219.561 242.286 360.89 230.634L368.929 218.018L416.361 214L422.471 230.634C422.471 230.634 484.051 266.473 476.012 338.071L408.322 366.036V396.652L200.347 393.839Z" fill="#39B55D"/>
<path d="M416.441 214C416.441 214 411.859 173.339 411.216 169.563C409.849 162.25 408.643 149.313 405.588 142.563C400.926 132.277 388.224 127.054 377.29 129.866C364.829 133 356.147 145.696 351.324 156.866C346.822 167.232 336.773 198.571 346.822 208.134C354.298 215.286 369.492 210.866 377.29 206.446L375.441 217.616L416.441 214Z" fill="#B26D55"/>
<path d="M406.875 170.527C407.116 167.393 410.09 165.304 412.984 164.098C415.044 163.144 417.312 162.73 419.576 162.893C420.7 162.984 421.787 163.337 422.75 163.923C423.713 164.509 424.526 165.312 425.123 166.268C425.749 167.452 426.027 168.789 425.927 170.125C425.767 174.143 423.275 177.679 420.782 180.893C417.245 185.634 413.386 190.616 407.839 192.705" fill="#B26D55"/>
<path d="M408.322 366.036C407.116 345.223 405.91 324.33 408.08 303.518C410.251 282.705 411.135 248.071 422.471 230.634C437.825 239.955 459.773 263.661 466.606 280.294C473.278 296.446 478.665 307.857 476.012 338.071L408.322 366.036Z" fill="#39B55D"/>
<path d="M360.89 230.634L353.253 242.446L349.073 231.92C348.992 232 357.273 230.634 360.89 230.634Z" fill="#194429"/>
<path d="M347.867 178.804C346.586 182.794 345.776 186.92 345.455 191.098C345.36 192.148 345.554 193.204 346.018 194.152C346.106 194.346 346.245 194.512 346.42 194.634C346.627 194.7 346.845 194.727 347.063 194.714C350.037 194.554 353.092 194.393 355.825 193.187C356.305 193.016 356.723 192.709 357.031 192.304C357.187 192.04 357.289 191.747 357.33 191.444C357.371 191.14 357.352 190.832 357.273 190.536C356.469 185.473 352.851 182.018 350.359 177.116C350.208 176.884 349.978 176.715 349.711 176.641C349.445 176.567 349.16 176.593 348.912 176.714C348.816 176.764 348.731 176.832 348.662 176.914C348.593 176.997 348.541 177.093 348.51 177.196C348.269 177.679 348.108 178.241 347.867 178.804Z" fill="#C05929"/>
<path d="M476.012 338.072C475.5 358.87 472.256 379.511 466.365 399.464C462.747 412 459.129 435.304 448.437 443.982C438.388 452.018 422.551 445.67 412.18 441.571C398.514 436.188 384.686 432.17 371.02 427.107C353.253 420.518 326.482 416.661 306.867 418.348C297.3 419.232 293.361 412.241 283.875 413.205C282.186 413.366 280.257 413.527 278.89 412.563C277.849 411.742 277.045 410.661 276.559 409.429L271.896 400.188C271.098 398.911 270.68 397.434 270.69 395.929C270.851 393.598 272.861 391.83 274.871 390.545C285.161 383.634 297.461 380.42 309.761 378.732C344.329 373.991 378.737 381.786 409.126 398.902C409.447 387.813 409.769 380.982 410.412 365.152L476.012 338.072Z" fill="#B26D55"/>
<path d="M334.843 409.75C339.667 411.437 352.369 411.116 355.665 414.25C359.122 417.464 329.618 418.67 326 419.071C297.541 421.723 269.082 423.411 240.543 424.536C213.371 425.58 184.188 428.955 157.257 424.857C146.243 423.17 142.465 418.428 141.902 407.42C140.616 380.5 139.41 353.5 138.123 326.58C138.012 323.964 138.856 321.397 140.497 319.357C142.139 317.317 144.467 315.943 147.047 315.491C194.162 307.703 241.938 304.634 289.663 306.33C291.398 306.385 293.055 307.067 294.326 308.249C295.597 309.43 296.396 311.033 296.576 312.759C297.863 326.259 302.686 357.598 303.651 361.214C306.384 371.42 309.278 381.946 314.745 391.027C319.569 399.223 322.865 405.652 334.843 409.75Z" fill="#194429"/>
<path d="M409.608 170.848C411.221 170.358 412.783 169.712 414.271 168.92C415.637 168.357 417.647 167.473 419.094 168.357C419.978 168.839 419.898 169.884 419.818 170.768C419.689 171.775 419.474 172.77 419.175 173.741C418.599 175.682 417.731 177.525 416.602 179.205C415.238 181.137 413.377 182.664 411.216 183.625C410.171 184.107 411.055 185.634 412.1 185.152C416.522 183.143 419.416 178.964 420.782 174.384C421.1 173.249 421.342 172.095 421.506 170.928C421.728 169.798 421.528 168.626 420.943 167.634C419.657 165.866 417.245 165.946 415.396 166.509C413.226 167.152 411.216 168.437 409.045 169C408.933 169.034 408.828 169.091 408.738 169.167C408.648 169.243 408.575 169.336 408.522 169.442C408.47 169.547 408.439 169.662 408.432 169.779C408.425 169.897 408.442 170.014 408.482 170.125C408.556 170.358 408.709 170.558 408.914 170.69C409.12 170.822 409.365 170.878 409.608 170.848Z" fill="#32142A"/>
<path d="M408.643 175.348C409.219 175.169 409.783 174.955 410.331 174.705C410.634 174.621 410.93 174.514 411.216 174.384C411.376 174.304 411.537 174.304 411.698 174.223L411.859 174.143C411.859 174.143 412.1 174.063 411.939 174.143H412.502C412.582 174.143 412.743 174.223 412.582 174.143C412.422 174.063 412.663 174.223 412.663 174.223L412.823 174.384L412.904 174.545C412.904 174.625 412.984 174.705 412.984 174.786C412.823 174.545 412.984 174.866 412.984 174.866V174.946C412.904 174.786 412.984 174.786 412.984 174.946V175.268C412.984 175.348 412.904 175.429 412.984 175.188V175.268C412.988 175.38 412.96 175.492 412.904 175.589L412.823 175.75C412.73 175.945 412.622 176.133 412.502 176.313L412.341 176.634L412.261 176.714C412.1 176.875 412.422 176.554 412.261 176.795C411.959 177.161 411.637 177.51 411.296 177.839C411.126 178.02 410.937 178.181 410.733 178.321L410.653 178.402L410.573 178.482L410.251 178.723C409.867 178.994 409.464 179.235 409.045 179.446L408.723 179.607C408.643 179.607 408.563 179.688 408.723 179.607L408.563 179.688C408.402 179.768 408.241 179.768 408.08 179.848C407.964 179.88 407.855 179.934 407.76 180.008C407.665 180.081 407.585 180.173 407.526 180.278C407.466 180.382 407.427 180.497 407.412 180.617C407.397 180.736 407.406 180.857 407.437 180.973C407.469 181.089 407.523 181.198 407.597 181.293C407.671 181.388 407.762 181.468 407.867 181.528C407.971 181.587 408.087 181.626 408.206 181.641C408.325 181.656 408.447 181.648 408.563 181.616C409.464 181.38 410.31 180.971 411.055 180.411C412.004 179.772 412.868 179.016 413.627 178.161C414.374 177.34 414.826 176.294 414.914 175.188C414.902 174.554 414.671 173.944 414.261 173.46C413.851 172.977 413.286 172.651 412.663 172.536C411.135 172.375 409.688 173.339 408.241 173.661C408.125 173.692 408.016 173.747 407.921 173.82C407.826 173.894 407.746 173.986 407.686 174.09C407.627 174.195 407.588 174.31 407.573 174.429C407.558 174.548 407.566 174.67 407.598 174.786C407.598 175.268 408.08 175.509 408.643 175.348Z" fill="#32142A"/>
<path d="M359.282 252.411C363.865 243.411 368.608 234.571 373.592 225.732C374.396 224.286 372.145 223 371.341 224.446C366.437 233.205 361.694 242.125 357.031 251.125C356.308 252.652 358.559 253.937 359.282 252.411Z" fill="#194429"/>
<path d="M394.173 254.179L397.308 221.393C397.469 219.705 394.896 219.786 394.735 221.393L391.6 254.259C391.439 255.866 394.012 255.866 394.173 254.179Z" fill="#194429"/>
<path d="M406.071 244.616V223.402C406.071 223.061 405.935 222.734 405.694 222.493C405.453 222.251 405.125 222.116 404.784 222.116C404.443 222.116 404.116 222.251 403.875 222.493C403.634 222.734 403.498 223.061 403.498 223.402V244.616C403.496 244.785 403.528 244.954 403.592 245.111C403.655 245.268 403.75 245.41 403.87 245.53C403.99 245.65 404.132 245.744 404.29 245.808C404.447 245.872 404.615 245.904 404.784 245.902C405.123 245.894 405.445 245.755 405.685 245.516C405.924 245.277 406.062 244.954 406.071 244.616Z" fill="#194429"/>
<path d="M383.882 248.473C384.541 242.418 385.562 236.407 386.937 230.473C387.339 228.866 384.847 228.143 384.445 229.75C383.004 235.891 381.956 242.118 381.31 248.393C381.308 248.562 381.339 248.73 381.403 248.887C381.467 249.044 381.562 249.187 381.682 249.307C381.802 249.427 381.944 249.521 382.101 249.585C382.258 249.649 382.427 249.681 382.596 249.679C382.926 249.687 383.246 249.566 383.487 249.34C383.728 249.114 383.87 248.803 383.882 248.473Z" fill="#194429"/>
<path d="M370.939 253.455L382.114 223.723C382.676 222.196 380.184 221.473 379.622 223L368.447 252.732C367.884 254.259 370.376 254.982 370.939 253.455Z" fill="#194429"/>
<path d="M410.09 219.866C412.261 226.295 414.753 232.643 416.763 239.152C416.859 239.482 417.082 239.761 417.384 239.927C417.685 240.092 418.04 240.132 418.371 240.036C418.701 239.94 418.98 239.717 419.146 239.415C419.312 239.114 419.351 238.759 419.255 238.429C417.326 231.92 414.833 225.571 412.582 219.143C412.02 217.616 409.527 218.339 410.09 219.866Z" fill="#194429"/>
<path d="M410.412 365.152C410.251 346.348 410.653 327.464 411.618 308.741C411.859 303.437 412.18 298.134 412.582 292.83C412.663 291.143 410.09 291.143 410.01 292.83C408.723 311.58 408 330.384 407.839 349.241C407.759 354.545 407.759 360.973 407.759 366.277L410.412 365.152Z" fill="#194429"/>
<path d="M395.057 391.75L410.573 328.75L410.653 399.705L395.057 391.75Z" fill="#194429"/>
<path d="M410.573 398.741C412.975 400.015 415.193 401.61 417.165 403.482L410.653 387.652L410.573 398.741Z" fill="#A05744"/>
<path d="M368.045 170.045C367.241 171.813 367.402 174.143 367.643 176.071C368.125 179.366 370.939 178.402 371.824 175.83C372.547 173.741 372.869 170.929 371.582 169.08C370.296 167.232 368.769 168.357 368.045 170.045Z" fill="#32142A"/>
<path d="M340.551 173.661C339.896 175.601 339.758 177.678 340.149 179.688C340.631 182.982 343.445 182.018 344.329 179.447C345.053 177.357 345.374 174.545 344.088 172.696C342.802 170.848 341.274 172.054 340.551 173.661Z" fill="#32142A"/>
<path d="M351.082 174.384C351.645 173.982 352.208 173.661 352.69 173.259C353.222 172.879 353.823 172.606 354.459 172.455C356.227 172.134 358.157 171.893 359.684 173.018C359.886 173.118 360.117 173.137 360.332 173.072C360.548 173.008 360.73 172.863 360.842 172.669C360.955 172.475 360.989 172.245 360.939 172.026C360.888 171.807 360.755 171.616 360.569 171.491C358.72 170.125 356.388 170.366 354.298 170.688C352.758 171.083 351.328 171.825 350.118 172.857C349.92 172.979 349.777 173.172 349.717 173.396C349.657 173.62 349.685 173.859 349.796 174.063C349.938 174.259 350.145 174.399 350.38 174.458C350.616 174.517 350.864 174.491 351.082 174.384Z" fill="#32142A"/>
<path d="M351.243 156.705C350.841 157.911 379.863 146.179 393.047 143.607L398.112 179.688C401.241 174.513 405.302 169.963 410.09 166.268C410.09 166.268 412.984 128.018 386.535 128.259C386.535 128.259 361.373 127.295 351.243 156.705Z" fill="#FAC7B7"/>
<path d="M366.92 162.411C367.482 162.411 368.126 162.33 368.688 162.33C371.796 162.058 374.918 162.671 377.692 164.098C380.024 165.223 382.194 166.67 384.526 167.795C385.329 168.197 386.294 168.518 386.857 167.634C387.024 167.252 387.103 166.837 387.089 166.42C387.075 166.003 386.968 165.594 386.777 165.223C385.098 161.627 382.454 158.567 379.139 156.384C376.797 155.109 374.17 154.445 371.502 154.455C369.251 154.455 364.186 154.938 362.257 156.304C359.845 157.991 363.061 161.447 365.714 162.25C366.109 162.348 366.513 162.402 366.92 162.411Z" fill="#FAC7B7"/>
<path d="M348.992 160.321C346.58 159.518 338.702 160.08 336.531 161.768C334.522 163.214 335.888 163.616 337.898 165.062C338.702 165.625 342.159 166.027 343.124 166.107C351.726 167.232 352.851 166.911 353.575 165.062C353.621 164.931 353.638 164.791 353.624 164.652C353.61 164.513 353.566 164.379 353.494 164.259C352.931 162.571 351.404 161.446 349.877 160.643C349.475 160.482 349.233 160.402 348.992 160.321Z" fill="#FAC7B7"/>
<path d="M338.863 163.054C332.753 163.295 328.09 168.679 327.286 174.545C326.884 177.759 327.206 181.214 329.135 183.946C330.768 186.349 333.229 188.066 336.049 188.768C342.078 190.295 348.349 186.679 350.6 180.973C351.279 179.203 351.587 177.313 351.504 175.419C351.421 173.525 350.949 171.668 350.118 169.964C349.117 167.843 347.52 166.059 345.521 164.832C343.522 163.604 341.208 162.986 338.863 163.054C338.745 163.059 338.629 163.089 338.524 163.142C338.418 163.194 338.324 163.268 338.249 163.359C338.173 163.45 338.117 163.555 338.084 163.669C338.052 163.782 338.043 163.901 338.059 164.018C338.087 164.221 338.18 164.41 338.326 164.555C338.471 164.7 338.659 164.794 338.863 164.821C340.642 164.777 342.401 165.199 343.966 166.045C345.532 166.891 346.849 168.131 347.786 169.643C349.05 171.549 349.721 173.785 349.716 176.071C349.721 178.812 348.716 181.459 346.891 183.505C345.067 185.55 342.552 186.852 339.827 187.161C338.518 187.278 337.199 187.136 335.944 186.742C334.69 186.349 333.526 185.713 332.518 184.869C331.51 184.026 330.678 182.992 330.07 181.827C329.462 180.663 329.09 179.389 328.974 178.08V177.839C328.687 174.599 329.603 171.367 331.547 168.759C332.415 167.613 333.515 166.662 334.776 165.97C336.037 165.278 337.429 164.859 338.863 164.741C338.974 164.741 339.083 164.719 339.186 164.677C339.288 164.634 339.381 164.572 339.46 164.494C339.538 164.416 339.6 164.323 339.643 164.22C339.685 164.118 339.707 164.008 339.707 163.897C339.707 163.787 339.685 163.677 339.643 163.574C339.6 163.472 339.538 163.379 339.46 163.301C339.381 163.222 339.288 163.16 339.186 163.118C339.083 163.075 338.974 163.054 338.863 163.054Z" fill="#32142A"/>
<path d="M371.1 157.589C364.99 157.83 360.327 163.214 359.524 169.08C359.122 172.295 359.443 175.75 361.373 178.482C363.005 180.885 365.467 182.601 368.286 183.304C374.316 184.83 380.586 181.214 382.837 175.509C383.514 173.752 383.821 171.875 383.738 169.994C383.655 168.114 383.184 166.27 382.355 164.58C381.349 162.458 379.752 160.67 377.756 159.43C375.76 158.19 373.45 157.551 371.1 157.589C370.845 157.614 370.61 157.737 370.445 157.932C370.28 158.127 370.198 158.379 370.216 158.634C370.244 158.837 370.337 159.026 370.482 159.171C370.628 159.316 370.816 159.41 371.02 159.437C372.798 159.393 374.558 159.815 376.123 160.661C377.689 161.507 379.006 162.747 379.943 164.259C381.171 166.181 381.839 168.407 381.872 170.687C381.878 173.428 380.872 176.075 379.048 178.121C377.224 180.167 374.709 181.468 371.984 181.777C370.675 181.894 369.355 181.752 368.101 181.358C366.847 180.965 365.683 180.329 364.675 179.486C363.667 178.642 362.835 177.608 362.227 176.444C361.619 175.279 361.247 174.005 361.131 172.696V172.455C360.844 169.215 361.76 165.983 363.704 163.375C364.572 162.229 365.672 161.278 366.933 160.586C368.194 159.894 369.586 159.475 371.02 159.357C371.136 159.362 371.252 159.345 371.361 159.305C371.47 159.266 371.571 159.205 371.657 159.127C371.742 159.048 371.812 158.954 371.861 158.849C371.911 158.743 371.939 158.629 371.944 158.513C371.949 158.397 371.932 158.281 371.892 158.172C371.853 158.063 371.792 157.962 371.713 157.877C371.635 157.791 371.541 157.721 371.435 157.672C371.33 157.623 371.216 157.595 371.1 157.589Z" fill="#32142A"/>
<path d="M384.204 173.098C393.69 170.607 403.016 167.875 412.341 164.821C412.576 164.757 412.775 164.603 412.896 164.392C413.016 164.181 413.048 163.931 412.984 163.696C412.92 163.462 412.766 163.263 412.555 163.142C412.344 163.021 412.093 162.99 411.859 163.054C402.614 166.107 393.208 168.839 383.722 171.33C383.49 171.419 383.301 171.594 383.196 171.819C383.091 172.044 383.078 172.301 383.159 172.536C383.247 172.732 383.397 172.893 383.586 172.995C383.775 173.096 383.992 173.133 384.204 173.098Z" fill="#32142A"/>
<path d="M354.057 153.571C352.931 148.991 363.141 146.661 363.463 150.598C363.543 151.804 362.418 152.366 361.533 151.402C360.569 150.277 361.292 148.509 361.855 147.384C362.851 145.636 364.33 144.213 366.116 143.286C367.939 142.32 370.039 142.008 372.065 142.402C372.646 142.516 373.177 142.81 373.581 143.243C373.985 143.676 374.242 144.225 374.316 144.813C374.476 145.295 375.039 148.107 373.914 146.982C373.271 146.339 373.592 144.893 373.833 144.17C374.343 142.796 375.33 141.651 376.614 140.943C377.897 140.235 379.393 140.011 380.827 140.313V138.625C379.692 138.824 378.525 138.752 377.422 138.417C376.319 138.082 375.31 137.493 374.476 136.696C372.708 134.768 373.592 132.598 375.682 131.554C376.587 131.098 377.586 130.863 378.599 130.867C379.612 130.871 380.609 131.114 381.51 131.576C382.411 132.038 383.19 132.706 383.784 133.526C384.378 134.346 384.77 135.295 384.927 136.295C385.169 137.42 386.937 136.938 386.696 135.813C385.571 129.946 378.335 126.893 373.512 130.83C373.019 131.193 372.603 131.65 372.288 132.174C371.972 132.698 371.764 133.279 371.674 133.884C371.584 134.489 371.615 135.106 371.765 135.699C371.915 136.292 372.181 136.849 372.547 137.339C372.627 137.5 372.788 137.58 372.869 137.741C374.878 140.152 378.175 140.875 381.229 140.473C382.114 140.313 382.033 138.946 381.229 138.705C376.567 137.5 370.537 141.839 371.824 146.982C371.937 147.502 372.193 147.979 372.562 148.362C372.931 148.745 373.399 149.019 373.914 149.152C374.178 149.216 374.452 149.228 374.72 149.186C374.989 149.144 375.246 149.049 375.478 148.907C375.71 148.766 375.911 148.579 376.07 148.359C376.23 148.139 376.344 147.889 376.406 147.625C376.542 146.313 376.348 144.987 375.843 143.768C375.634 143.156 375.296 142.595 374.852 142.124C374.409 141.653 373.869 141.282 373.271 141.036C368.045 139.027 361.694 142.884 359.684 147.705C358.72 150.036 359.122 153.732 362.337 153.893C364.749 153.973 365.633 151.321 364.829 149.393C363.543 146.42 359.604 146.741 357.031 147.545C354.137 148.429 351.404 150.839 352.208 154.214C352.304 154.444 352.485 154.629 352.713 154.73C352.941 154.832 353.199 154.842 353.434 154.761C353.67 154.679 353.865 154.51 353.981 154.289C354.097 154.068 354.124 153.812 354.057 153.571Z" fill="white"/>
<path d="M390.073 142.321C389.831 140.071 389.349 136.857 391.68 135.411C392.187 135.149 392.763 135.055 393.327 135.141C393.89 135.228 394.411 135.491 394.816 135.893C395.708 136.779 396.274 137.94 396.423 139.187C396.504 139.75 396.584 140.393 396.665 141.036C396.665 141.518 396.906 142.321 396.504 142.723C396.102 143.125 396.424 142.241 396.504 142.08C396.768 141.588 397.156 141.172 397.629 140.875C399.478 139.589 402.373 139.027 403.659 141.357C404.159 142.418 404.459 143.562 404.543 144.732C404.624 145.696 405.025 148.187 403.578 148.348C402.453 148.429 402.373 150.277 403.578 150.116C405.508 149.875 406.473 148.187 406.553 146.42C406.62 144.61 406.319 142.806 405.669 141.116C405.377 140.318 404.882 139.61 404.234 139.06C403.586 138.511 402.806 138.139 401.971 137.982C400.081 137.76 398.179 138.278 396.665 139.429C395.459 140.313 393.931 142.241 394.896 143.848C395.861 145.455 398.031 144.411 398.433 142.964C398.66 142.043 398.687 141.084 398.514 140.152C398.462 139.158 398.245 138.181 397.871 137.259C397.599 136.381 397.122 135.58 396.479 134.923C395.836 134.266 395.045 133.772 394.173 133.482C393.227 133.233 392.227 133.303 391.325 133.681C390.424 134.059 389.673 134.723 389.188 135.571C387.902 137.58 388.063 140.071 388.384 142.321C388.384 143.446 390.233 143.446 390.073 142.321Z" fill="white"/>
<path d="M396.584 154.697C396.504 154.295 397.067 153.973 397.388 153.973C397.625 153.948 397.865 153.979 398.088 154.063C398.312 154.146 398.512 154.281 398.674 154.455C399.229 155.083 399.64 155.823 399.88 156.625C400.202 157.509 400.523 158.795 399.961 159.598C399.801 159.843 399.562 160.025 399.283 160.113C399.005 160.201 398.704 160.189 398.433 160.08C397.388 159.357 399.398 158.393 399.961 158.313C400.925 158.152 401.971 157.911 402.533 158.875C403.417 160.681 403.91 162.652 403.98 164.661C404.117 166.581 403.926 168.51 403.418 170.366C403.181 171.305 402.858 172.219 402.453 173.098C402.212 173.661 401.569 175.268 401.086 174.143C400.609 173.201 400.441 172.133 400.604 171.089C400.936 170.211 401.561 169.473 402.372 169C404.061 167.795 405.99 166.83 407.759 165.705C408.723 165.063 407.839 163.536 406.874 164.179L402.855 166.589C401.752 167.145 400.747 167.878 399.88 168.759C398.272 170.607 398.433 173.42 399.72 175.509C399.925 175.921 400.285 176.237 400.721 176.387C401.157 176.537 401.634 176.511 402.051 176.313C403.096 175.83 403.659 174.705 404.141 173.741C405.196 171.306 405.744 168.681 405.749 166.027C405.81 163.375 405.289 160.741 404.222 158.313C404.032 157.803 403.708 157.354 403.283 157.014C402.858 156.674 402.349 156.457 401.81 156.384C400.567 156.236 399.308 156.46 398.192 157.027C396.504 157.911 395.539 160.563 397.549 161.688C399.237 162.652 401.408 161.447 401.89 159.679C402.533 157.429 401.327 153.893 399.318 152.688C397.308 151.482 394.494 152.768 394.896 155.259C394.896 156.304 396.665 155.822 396.584 154.697Z" fill="white"/>
<path d="M409.447 156.786C409.151 156.403 408.883 156 408.643 155.58C408.413 155.181 408.25 154.747 408.161 154.295C408.029 153.852 407.975 153.39 408 152.928V151.723C408 151.803 408 151.482 408.08 151.482C408.127 151.249 408.087 151.006 407.969 150.799C407.851 150.593 407.662 150.436 407.437 150.357C407.321 150.325 407.2 150.317 407.08 150.332C406.961 150.347 406.846 150.386 406.741 150.445C406.637 150.505 406.545 150.585 406.471 150.68C406.398 150.775 406.343 150.884 406.312 151C406.075 152.236 406.11 153.509 406.416 154.731C406.721 155.952 407.289 157.092 408.08 158.071C408.259 158.226 408.487 158.311 408.724 158.311C408.96 158.311 409.188 158.226 409.367 158.071C409.516 157.894 409.604 157.673 409.618 157.442C409.633 157.21 409.573 156.98 409.447 156.786Z" fill="white"/>
<path d="M231.137 360.893C231.539 372.143 224.304 384.116 207.743 378.732C190.218 373.027 208.869 344.5 224.786 352.134C229.208 354.223 231.057 357.438 231.137 360.893Z" fill="#FAC7B7"/>
<path d="M20.9921 394.321C50.3353 394.482 79.7588 393.759 109.102 392.071C117.302 391.589 125.582 391.107 133.782 390.464C134.465 390.464 135.119 390.193 135.601 389.711C136.084 389.229 136.355 388.575 136.355 387.893C136.355 387.211 136.084 386.557 135.601 386.074C135.119 385.592 134.465 385.321 133.782 385.321C104.439 387.491 75.0961 388.696 45.6725 389.098C37.3921 389.178 29.1921 389.178 20.9117 389.178C17.6157 389.178 17.6157 394.321 20.9921 394.321Z" fill="#FAC7B7"/>
<path d="M18.1784 376.723C48.9686 377.286 79.6784 377.527 110.469 377.607H136.274C139.571 377.607 139.651 372.384 136.274 372.464C105.484 372.545 74.7209 372.384 43.9843 371.982C35.3823 371.902 26.7804 371.741 18.1784 371.58C14.8019 371.5 14.8019 376.643 18.1784 376.723Z" fill="#FAC7B7"/>
<path d="M10.7019 360.973C44.3862 362.018 78.0437 361.857 111.674 360.491C121.08 360.089 130.567 359.607 139.973 359.045C143.269 358.804 143.269 353.661 139.973 353.902C106.369 355.991 72.7111 356.848 39 356.473C29.5137 356.393 20.1078 356.152 10.6215 355.83C7.32545 355.75 7.32545 360.893 10.7019 360.973Z" fill="#FAC7B7"/>
<path d="M7.64704 343.214C28.549 343.75 49.4778 343.589 70.4333 342.732C73.7294 342.571 73.8098 337.428 70.4333 337.589C49.5313 338.393 28.6026 338.553 7.64704 338.071C4.27057 337.991 4.27057 343.134 7.64704 343.214Z" fill="#FAC7B7"/>
<path d="M12.149 324.652H66.7353C70.0314 324.652 70.1117 319.428 66.7353 319.428H12.149C8.85292 319.509 8.85292 324.652 12.149 324.652Z" fill="#FAC7B7"/>
<path d="M18.1784 422.286C48.9686 422.848 79.6784 423.089 110.469 423.17H136.274C139.571 423.17 139.651 417.946 136.274 418.027C105.484 418.107 74.7209 417.946 43.9843 417.545C35.3823 417.464 26.7804 417.303 18.1784 417.143C14.8019 417.062 14.8019 422.205 18.1784 422.286Z" fill="#FAC7B7"/>
<path d="M10.7019 407.58C44.3862 408.625 78.0437 408.464 111.674 407.098C121.08 406.696 130.567 406.214 139.973 405.652C143.269 405.41 143.269 400.268 139.973 400.509C106.369 402.598 72.7111 403.455 39 403.08C29.5137 403 20.1078 402.759 10.6215 402.437C7.32545 402.277 7.32545 407.419 10.7019 407.58Z" fill="#FAC7B7"/>
<path d="M352.449 199.536C348.59 203.473 355.424 209.259 359.363 205.723C364.267 201.464 356.71 195.196 352.449 199.536Z" fill="#32142A"/>
<path d="M183.063 143.527C182.545 145.521 182.644 147.625 183.348 149.562C184.051 151.499 185.325 153.177 187.002 154.375C187.102 154.442 187.216 154.488 187.335 154.51C187.454 154.531 187.576 154.528 187.694 154.501C187.811 154.474 187.922 154.422 188.019 154.35C188.117 154.278 188.198 154.187 188.259 154.083C188.319 153.978 188.358 153.862 188.372 153.742C188.386 153.622 188.375 153.501 188.34 153.385C188.305 153.269 188.247 153.162 188.169 153.069C188.091 152.977 187.995 152.902 187.886 152.848C186.556 151.862 185.548 150.503 184.99 148.944C184.432 147.385 184.349 145.695 184.751 144.089C184.791 143.855 184.738 143.615 184.602 143.419C184.467 143.224 184.261 143.089 184.027 143.045C183.933 143.011 183.832 142.996 183.731 143.003C183.631 143.009 183.532 143.035 183.442 143.08C183.352 143.125 183.272 143.188 183.207 143.265C183.142 143.341 183.093 143.431 183.063 143.527Z" fill="#32142A"/>
</svg>
